<svg xmlns="http://www.w3.org/2000/svg" width="88" height="77.527" viewBox="0 0 88 77.527">
  <path id="image-regular" d="M77,40.306a2.768,2.768,0,0,1,2.75,2.769V98.417l-.859-1.125L55.516,66.835a4.118,4.118,0,0,0-6.531,0L34.719,85.421l-5.242-7.389a4.1,4.1,0,0,0-6.7.017L9.023,97.43,8.25,98.5V43.075A2.768,2.768,0,0,1,11,40.306ZM11,32A11.048,11.048,0,0,0,0,43.075V98.451a11.048,11.048,0,0,0,11,11.075H77A11.048,11.048,0,0,0,88,98.451V43.075A11.048,11.048,0,0,0,77,32ZM24.75,65.226a8.307,8.307,0,1,0-8.25-8.306,8.278,8.278,0,0,0,8.25,8.306Z" transform="translate(0 -32)" fill="#f0f0f0"/>
</svg>
