<svg xmlns="http://www.w3.org/2000/svg" width="22.747" height="22.742" viewBox="0 0 22.747 22.742">
  <path id="instagram" d="M11.3,37.365A5.831,5.831,0,1,0,17.132,43.2,5.822,5.822,0,0,0,11.3,37.365Zm0,9.622A3.791,3.791,0,1,1,15.092,43.2,3.8,3.8,0,0,1,11.3,46.987Zm7.429-9.86a1.36,1.36,0,1,1-1.36-1.36A1.357,1.357,0,0,1,18.731,37.127Zm3.862,1.38a6.73,6.73,0,0,0-1.837-4.765A6.775,6.775,0,0,0,15.99,31.9c-1.878-.107-7.506-.107-9.383,0a6.765,6.765,0,0,0-4.765,1.832A6.752,6.752,0,0,0,0,38.5C-.1,40.38-.1,46.008,0,47.885A6.73,6.73,0,0,0,1.842,52.65a6.783,6.783,0,0,0,4.765,1.837c1.878.107,7.506.107,9.383,0a6.73,6.73,0,0,0,4.765-1.837,6.775,6.775,0,0,0,1.837-4.765c.107-1.878.107-7.5,0-9.378ZM20.167,49.9A3.838,3.838,0,0,1,18,52.062c-1.5.594-5.049.457-6.7.457s-5.212.132-6.7-.457A3.838,3.838,0,0,1,2.436,49.9c-.594-1.5-.457-5.049-.457-6.7s-.132-5.212.457-6.7A3.838,3.838,0,0,1,4.6,34.331c1.5-.594,5.049-.457,6.7-.457s5.212-.132,6.7.457a3.838,3.838,0,0,1,2.162,2.162c.594,1.5.457,5.049.457,6.7S20.761,48.408,20.167,49.9Z" transform="translate(0.075 -31.825)" fill="#f9f9ed"/>
</svg>
