<svg xmlns="http://www.w3.org/2000/svg" width="24.142" height="24.142" viewBox="0 0 24.142 24.142">
  <path id="linkedin" d="M22.417,32H1.719A1.732,1.732,0,0,0,0,33.741V54.4a1.732,1.732,0,0,0,1.719,1.741h20.7A1.736,1.736,0,0,0,24.142,54.4V33.741A1.736,1.736,0,0,0,22.417,32ZM7.3,52.693H3.718V41.172H7.3V52.693ZM5.507,39.6a2.075,2.075,0,1,1,2.075-2.075A2.076,2.076,0,0,1,5.507,39.6Zm15.2,13.095H17.131v-5.6c0-1.336-.027-3.055-1.859-3.055-1.865,0-2.15,1.455-2.15,2.958v5.7H9.543V41.172h3.433v1.574h.048a3.769,3.769,0,0,1,3.39-1.859c3.621,0,4.295,2.387,4.295,5.491Z" transform="translate(0 -32)" fill="#f9f9ed"/>
</svg>
