<svg xmlns="http://www.w3.org/2000/svg" width="32.268" height="22.686" viewBox="0 0 32.268 22.686">
  <path id="youtube" d="M46.494,67.551a4.05,4.05,0,0,0-2.853-2.871C41.124,64,31.034,64,31.034,64s-10.09,0-12.607.679a4.05,4.05,0,0,0-2.853,2.871,45.689,45.689,0,0,0,0,15.632,3.988,3.988,0,0,0,2.853,2.824c2.517.679,12.607.679,12.607.679s10.09,0,12.607-.679a4,4,0,0,0,2.853-2.824,45.689,45.689,0,0,0,0-15.632ZM27.737,80.163V70.569l8.43,4.8-8.43,4.8Z" transform="translate(-14.9 -64)" fill="#f9f9ed"/>
</svg>
