<?xml version="1.0" encoding="UTF-8"?><svg id="b" xmlns="http://www.w3.org/2000/svg" viewBox="0 0 252.38 287.43"><g id="c"><path id="d" d="M0,287.41c3.48-14.31,6.42-28.22,10.29-41.8,3.71-13.01,12.99-19.76,24.27-23.18,15.09-4.57,30.28-8.73,45.38-13.26,2.18-.73,4.16-1.95,5.79-3.57,4.17-3.99,7.93-8.54,12.2-12.41,3.36-3.05,4.65-6.43,4.55-11.29-.08-4.17-1.06-6.68-4.29-9.01-8.89-6.2-14.92-15.7-16.75-26.39-.68-3.37-1.53-6.71-2.55-10-1.06-3.64-1.32-7.78-5.83-8.97-1.38-.36-2.86-2.7-3.33-4.45-1.93-6.86-3.5-13.81-4.71-20.83-.22-1.36,2.24-3.49,3.76-4.88.66-.6,2.04-.21,3.05-.26,0-3.97-.14-7.82.03-11.64.63-14,1.31-28,2.06-41.99.51-9.61,5.58-15.46,12.91-19.59,1.58-.89,2.71-2.89,3.9-4.52,1.86-2.57,3.21-5.79,5.44-7.81,22.35-20.22,66.14-13.78,79.36,18.36,4.23,9.92,6.47,20.57,6.6,31.35.02,10.24-1.15,20.48-1.81,30.72-.09,1.46-.29,2.9-.43,4.3,6.24,3.05,6.47,3.1,5.27,10.7-.89,5.07-2.13,10.08-3.71,14.98-.59,1.92-1.8,4.3-3.29,5.05-3.81,1.91-4.24,5.62-5.05,9.29-.66,2.98-1.54,5.91-2.03,8.92-2.11,13-8.94,22.2-18.66,29.01-1.85,1.3-2.29,2.75-2.55,5.09-.79,7.11,1.46,11.97,6.26,16.9,6.39,6.57,13.03,11.32,21.59,13.61,13.68,3.66,27.16,8.3,40.68,12.72,13.09,4.28,22.1,13.09,25.37,28.57,2.54,12.06,5.66,23.96,8.61,36.3l-252.38-.02Z" style="fill:#1a1818; stroke-width:0px;"/></g></svg>