<?xml version="1.0" encoding="UTF-8"?><svg id="b" xmlns="http://www.w3.org/2000/svg" xmlns:xlink="http://www.w3.org/1999/xlink" viewBox="0 0 98.36 82.33"><defs><clipPath id="d"><rect width="98.36" height="82.33" style="fill:none; stroke-width:0px;"/></clipPath></defs><g id="c"><g style="clip-path:url(#d);"><g id="e"><path id="f" d="M75.8,59.69c-7.58,13.21-23.69,18.86-37.86,13.29-1.27-.69-2.83-.48-3.88.51-3.27,2.69-6.71,5.17-10.11,7.69-.61.69-1.48,1.11-2.41,1.16,1.96-4.65,3.75-9.13,5.77-13.51.68-1.09.43-2.52-.59-3.31-8.39-9.06-11.06-19.68-7.24-31.39,3.85-11.79,12.35-18.91,24.55-21.21,17.07-3.22,33.87,9.32,36.14,26.57.64,4.94.14,9.95-1.45,14.67-.3,1.01-.98,1.86-1.9,2.37-4.69,2.77-9.91,4.55-15.32,5.21-1.03.34-2.17-.03-2.8-.91-.48-.58-1.22-.88-1.97-.82-3.02-.04-6.04-.08-9.05.02-1.48-.13-2.77.97-2.9,2.44-.01.16-.01.33,0,.49-.1,1.45,1,2.7,2.44,2.8.18.01.37,0,.55-.02,2.94,0,5.87,0,8.81,0,.32.05.65.01.96-.09,5.68-3.23,12.74-2.16,18.26-5.97" style="fill:#070807; stroke-width:0px;"/><path id="g" d="M48.64,0c21.64-.32,40.25,15.27,43.72,36.64.04,1.3,1.1,2.34,2.4,2.36,3.67.62,3.92.96,3.4,4.62-.95,6.69-1.98,13.36-3.02,20.03-.32,2.08-1.36,3.16-3.72,2.68-2.7-.55-5.48-.77-8.21-1.22-2.44-.4-2.85-1.25-1.7-3.34,9.92-17.91,3.43-40.47-14.48-50.39-4.23-2.34-8.87-3.83-13.67-4.39C30.54,4.27,10.58,23.51,12.34,46.46c.35,5.45,1.95,10.75,4.68,15.49,1.15,1.97.35,2.74-1.33,3.06-3.2.61-6.42,1.12-9.65,1.46-1.81.19-2.54-1.18-2.79-2.77-.71-4.58-1.39-9.17-2.07-13.76-.37-2.49-.72-4.99-1.1-7.49-.31-2.01.48-3.17,2.54-3.28,2.23-.12,3.19-.99,3.55-3.44C8.78,18.09,24.82,2.72,42.59.46c2-.3,4.03-.45,6.05-.46" style="fill:#070807; stroke-width:0px;"/><path id="h" d="M39.93,37.86c.15,1.4-.87,2.66-2.27,2.81-.06,0-.13.01-.19.01-1.47.13-2.77-.96-2.89-2.43s.96-2.77,2.43-2.89c.08,0,.17-.01.25-.01,1.4-.08,2.59.99,2.67,2.38,0,.04,0,.09,0,.13" style="fill:#f6f6f5; stroke-width:0px;"/><path id="i" d="M49.08,40.73c-1.41.02-2.57-1.1-2.6-2.52,0-.06,0-.12,0-.18-.11-1.39.93-2.6,2.31-2.71.16-.01.33,0,.49,0,1.37-.06,2.53,1,2.59,2.36,0,.1,0,.21,0,.31.09,1.41-.97,2.63-2.39,2.73-.14,0-.28,0-.41,0" style="fill:#f2f2f1; stroke-width:0px;"/><path id="j" d="M61.14,40.74c-1.41.05-2.6-1.06-2.64-2.48,0-.04,0-.07,0-.11-.21-1.33.71-2.57,2.04-2.78.2-.03.4-.04.6-.02,1.36-.13,2.57.86,2.7,2.22.02.18.02.37,0,.55.01,1.43-1.14,2.61-2.58,2.62-.03,0-.07,0-.1,0" style="fill:#f6f6f6; stroke-width:0px;"/></g></g></g></svg>