<?xml version="1.0" encoding="UTF-8"?><svg id="b" xmlns="http://www.w3.org/2000/svg" viewBox="0 0 128.71 141.09"><g id="c"><path d="M.24,140.76c-.3-6.47-.34-12.94,0-19.41.36-6.72.94-13.43,2.7-19.97,1.44-5.35,4.94-9.06,9.17-12.39,3.08-2.42,6.43-4.31,9.75-6.31,2.24-1.36,4.54-2.58,6.91-3.69.55.51.38,1.18.38,1.79.02,3.72.03,7.43,0,11.15,0,.99.3,1.69,1.08,2.33,1.08.89,2.09,1.88,3.28,2.64.99.63,1.25,1.5.87,2.58-.52,1.5-.88,3.05-1.42,4.54-.32.87-.21,1.64.16,2.48,1.44,3.23,3.06,6.37,4.58,9.56,3.45,7.24,6.94,14.46,10.4,21.69.33.7.68,1.38,1.25,1.93.07.14.12.3.13.46-.02.34-.04.68-.47.78-7.99.02-15.98,0-23.96,0-.81-.11-.9-.82-1.09-1.4-1.97-5.84-3.65-11.77-5.57-17.63-.54-1.64-1.12-3.28-1.33-4.54.74,2.81,1.06,6.16,1.62,9.46.68,4.07,1.33,8.14,1.9,12.22.09.66.45,1.46-.49,1.88-6.13,0-12.26,0-18.39-.01-.48,0-.99.15-1.45-.15Z" style="fill:#46bbde; stroke-width:0px;"/><path d="M.24,140.76c6.71,0,13.43,0,20.14,0,1.44-.6,2.88-.6,4.32.02,8.17,0,16.34,0,24.51.01.49-.42,1.09-.42,1.68-.42,7.94-.01,15.87,0,23.81,0,.59,0,1.18,0,1.53.28-.82-.38-1.19-1.24-1.27-2.27-.06-.72-.04-1.45-.04-2.17-.01-17.95.02-35.89-.02-53.84,0-.36-.03-.73.12-1.07.69-.99.3-2.1.32-3.15.05-4.05.24-4.26,4.32-4.26,4.94,0,9.88-.03,14.82.02,1.02.01,1.3-.3,1.31-1.31.03-1.92-.33-3.87.22-5.77.57.54.44,1.25.45,1.91.02,3.29,0,6.59.02,9.88.01,1.89.31,2.13,2.23,2.2,1.2.04,2.44-.26,3.6.3.66,1,.39,2.09.31,3.17-.7,1.24-2.09,1.44-3.22,1.75-1.77.49-2.37,1.64-2.62,3.21-.2,1.26,0,2.53-.14,3.79-1.36,2.64.91,4.17,1.91,6.07.28.53.89.88,1.05,1.52.11.64.12,1.28-.04,1.91-.21.53-.61.94-.97,1.37-.57.41-1.18.76-1.78,1.13-1.2.64-2.38,1.29-3.49,2.09-1.36.98-2.18,2.28-2.53,3.88-.53,2.48-.68,5-.63,7.54.02,1,.57,1.17,1.4,1.2,2.98.1,5.96-.03,8.95,0,.7,0,1.5-.09,1.83.81.16.58.12,1.17.13,1.75.04,1.58.15,1.71,1.7,1.73,2.67.02,5.33,0,8,0,2.62,0,5.24-.03,7.86.02.59.01,1.4-.24,1.59.74-.41.35-.91.36-1.41.36-5.86,0-11.71.06-17.57-.02-5.43.06-10.86,0-16.3.03-2.1,0-2.11.02-2.11,2.12,0,1.63-.01,3.26,0,4.89.02,1.5.14,1.64,1.63,1.65,4.71.02,9.42,0,14.12.01.72,0,1.46-.1,2.1.36.56,2.11.68,4.23-.05,6.33h0c-1.15.37-2.37-.13-3.52.28-.41.42-.94.25-1.42.25-31.82,0-63.64,0-95.46,0-.47,0-1.01.21-1.39-.28Z" style="fill:#d4d8db; stroke-width:0px;"/><path d="M102.31,84.52v-3.27c.85-.75,1.88-.41,2.84-.43,2.39-.06,2.66-.36,2.76-2.75.06-1.4-.44-2.88.41-4.2,5.76,0,11.52,0,17.29,0,2.51,0,3.11.6,3.11,3.13,0,20.18,0,40.35,0,60.53,0,2.58-.42,3-2.99,3-7.89,0-15.79,0-23.68,0,0-2.07,0-4.14,0-6.22.16-.24.41-.33.67-.39,4.52-.2,9.04-.04,13.55-.09,1.18-.01,2.35-.03,3.53,0,1.05.03,1.44-.44,1.42-1.46-.03-1.94-.02-3.88,0-5.83,0-.63-.04-1.28.42-1.8-.39-.46-.93-.27-1.4-.27-5.44-.01-10.88,0-16.32,0q-1.87,0-1.87-1.93c0-.73,0-1.45,0-2.18.1-.22.24-.39.47-.48,2.98-.33,5.97-.09,8.96-.14,2.98-.04,2.67.15,2.71-2.74.02-1.55-.24-3.07-.41-4.59-.28-2.56-1.58-4.48-3.78-5.81-.78-.47-1.55-.93-2.35-1.36-.15-.09-.3-.2-.45-.3-1.07-.71-1.11-.69-1.45.6-.14.55-.08,1.19-.64,1.57-.69.17-1.1-.3-1.55-.67-.46-.54-1.08-.94-1.39-1.61-.02-.13-.02-.26.02-.39.17-.38.49-.67.83-.84,1.32-.64,1.82-1.71,1.79-3.11.96-1.13,1.85-2.3,2.65-3.57.68-1.07.85-2.04.65-3.19-.01-.14,0-.27,0-.4.12-1,.17-2-.04-2.99-.75-2.84-2.61-4.57-5.38-5.39-.19-.09-.31-.24-.39-.43Z" style="fill:#e7e6e8; stroke-width:0px;"/><path d="M49.23,79.55c-.31-1.13-1.41-1.46-2.18-2.1-2.79-2.29-5.64-4.5-8.47-6.73-.59-.46-.8-1.01-.79-1.76.04-2.17.01-4.35,0-6.53.72-.35,1.21.17,1.73.49,2.28,1.37,4.74,2.26,7.36,2.73,2.24.4,2.46.23,2.46-2.01,0-12.83,0-25.66.01-38.49,0-.84-.19-1.75.53-2.44.52-.33,1.05-.15,1.58-.03,4.08.89,8.2,1.52,12.39,1.55,1.97.01,2.93,1.19,3.57,2.81,1.17,3.01,2,6.1,2.34,9.33.16,1.58.32,3.15.28,4.74-.01.59-.02,1.26.84,1.27.78.02.76-.61.86-1.14.23-1.21.22-2.43.24-3.66.01-.67-.01-1.38.67-1.82,1.35-.15,2.05.66,2.35,1.79.82,3.08.39,6.01-1.39,8.68-.19.29-.5.66-.8.7-1.35.16-1.46,1.2-1.79,2.18-1.59,4.64-3.9,8.83-7.73,12.06-.68.57-1.23,1.31-2,1.79-.5.31-.35.79-.35,1.23-.03,2.04-.04,4.08-.05,6.12-.16.08-.29.05-.39-.1-.47-1.51-.16-3.05-.22-4.58-.06-1.38-.06-1.42-1.24-.86-2.48,1.19-5.09,1.89-7.82,2.11-.99.08-1.35.49-1.34,1.43.04,3.48-.06,6.96.06,10.44.05.22.05.44,0,.66-.06.15-.16.24-.31.28-.15.01-.28-.04-.39-.15Z" style="fill:#d5b79f; stroke-width:0px;"/><path d="M50.02,22.76c-.35.53-.26,1.13-.26,1.72,0,13.26,0,26.53,0,39.79,0,2.1-.16,2.3-2.22,1.95-3.04-.52-5.96-1.43-8.57-3.17-.36-.24-.67-.63-1.18-.62-4.48-3.86-7.75-8.5-9.3-14.27-.09-.34-.08-.82-.71-.77-.99.07-1.62-.61-2.07-1.33-1.64-2.63-1.98-5.49-1.19-8.46.27-1.02.87-1.8,2.07-1.82.8.71.68,1.74.88,2.64.23,1.01.36,2.05.53,3.08.12.72.5,1.01,1.22.95.74-.07.79-.58.84-1.16.25-2.75.27-5.51.28-8.27.02-3.87.4-7.65,2.24-11.21,1.26-2.44,3.24-3.82,5.63-4.84.5-.21.98-.16,1.41.19,2.97,2.39,6.36,3.98,9.94,5.2.13.04.24.13.34.22.04.06.08.12.12.19Z" style="fill:#c6a28a; stroke-width:0px;"/><path d="M75.01,81.28c.54.52.33,1.19.34,1.8,0,18.2.01,36.4,0,54.61,0,1.21.04,2.37,1.35,3.1-9.16,0-18.33,0-27.49,0,0-.27,0-.55,0-.82.26-.34-.19-.96.44-1.16.88-.6,1.1-1.62,1.51-2.49,4.08-8.58,8.17-17.16,12.46-25.64.72-1.42,1.26-2.91,2.01-4.31.41-.77.37-1.56.1-2.37-.51-1.55-.89-3.14-1.46-4.66-.35-.94-.15-1.65.69-2.23,1.27-.87,2.41-1.91,3.58-2.91.73-.62,1.02-1.3,1.01-2.23-.03-3.8-.03-7.6.01-11.4,0-.53-.33-1.32.61-1.53l4.84,2.25Z" style="fill:#0fa9cc; stroke-width:0px;"/><path d="M72.65,35.77c-.5,2-.3,4.05-.48,6.08-.1,1.09-.64,1.04-1.41,1.06-.83.03-1.09-.25-1.09-1.08,0-4.64-.56-9.2-2.22-13.57-.24-.63-.57-1.23-.79-1.86-.44-1.31-1.37-1.72-2.69-1.74-4.36-.08-8.65-.7-12.9-1.66-.35-.08-.7-.16-1.05-.24,0,0,.02-.09.02-.09-.87-.46-.68-1.3-.71-2.04-.21-5.2.3-10.39.26-15.58,0-1.08,0-2.17,0-3.25,0-.59,0-1.18.42-1.67,3.73-.6,6.75,1.11,9.63,3.09,2.19,1.51,4.27,3.18,5.97,5.27.65.8,1.48,1.47,2.27,2.14,4.47,3.76,6.23,8.6,5.91,14.34-.17,3.04-.67,6.03-1.03,9.04-.07.58-.09,1.17-.13,1.76Z" style="fill:#3c4d56; stroke-width:0px;"/><path d="M50.03.12c0,3.34.21,6.71-.06,10.03-.3,3.66-.09,7.31-.21,10.95-.02.54-.08,1.09.28,1.57-3.88-.67-7.14-2.64-10.19-4.96-.76-.58-1.23-.55-2.01-.23-4.1,1.7-5.72,5.18-6.57,9.16-.45,2.12-.61,4.3-.55,6.47.08,2.95-.17,5.88-.28,8.82-.03.78-.34,1.11-1.07.98-.64-.11-1.55.49-1.7-.87-.24-2.1-.71-4.17-1.08-6.26-.36-3.32-.85-6.62-.87-9.97-.04-4.96.45-9.8,2.82-14.28.76-1.44,1.72-2.76,2.8-3.95,1.52-1.68,3.53-2.57,5.83-2.22.96.14,1.57-.15,2.3-.64,2.7-1.83,5.48-3.54,8.69-4.39.63-.17,1.24-.2,1.87-.19Z" style="fill:#475d6b; stroke-width:0px;"/><path d="M49.16,139.71c-.62-.04-.77-.57-.99-1.01-4.75-9.86-9.5-19.72-14.25-29.58-.1-.2-.12-.46-.25-.63-2.02-2.56-1.05-5.15-.11-7.74.16-.42.25-.87.43-1.28.45-1.04.28-1.79-.79-2.36-1.52-.81-2.57-2.24-3.99-3.2-.57-.38-.41-.96-.41-1.49-.02-4.48-.03-8.97-.04-13.45,1.61-1.08,3.23-2.15,4.83-3.24.87-.6.9.16,1.01.63.71,2.88,1.39,5.77,2.07,8.66.4,1.71.77,3.42,1.16,5.14.62.38.66,1.05.79,1.66,1.66,7.29,3.28,14.59,5,21.86.33,1.41.5,2.85.95,4.24,1.57,6.84,3.2,13.67,4.69,20.53-.1.42.27.87-.11,1.27Z" style="fill:#0fa9cc; stroke-width:0px;"/><path d="M70.18,79.03c-.44.4-.26.93-.26,1.41-.01,3.9-.03,7.79,0,11.69,0,.97-.2,1.63-1.04,2.28-1.34,1.04-2.56,2.26-4.01,3.18-.61.39-.53.84-.36,1.39.55,1.72,1.06,3.45,1.65,5.16.27.78.25,1.48-.12,2.22-1.76,3.57-3.5,7.14-5.23,10.72-3.3,6.84-6.58,13.7-9.89,20.54-.27.56-.65,1.07-.98,1.59,0,0-.1-.02-.11-.05-.03-.08-.04-.17-.06-.26-.49-.53-.23-1.11-.11-1.67,1.47-6.52,2.99-13.03,4.45-19.55,1.28-5.46,2.5-10.93,3.76-16.39.87-3.74,1.6-7.52,2.64-11.23.87-4.19,1.82-8.37,2.88-12.52.2-.8.18-1.87,1.34-2.13,1.82,1.2,3.64,2.41,5.45,3.61Z" style="fill:#46bbde; stroke-width:0px;"/><path d="M54.53,117.59c-1.54,6.75-3.07,13.5-4.6,20.25-.08.35-.11.71-.16,1.06-.46.21-.02.89-.55,1.06.02-.09,0-.17-.05-.25-.06-.37-.12-.74-.17-1.11-.45-14.85-.08-29.7-.2-44.54,0-.18.02-.36,0-.54-.07-.6.22-1.36-.55-1.67-.78-.31-1.41.04-1.87.7-.41.29-.61.01-.65-.32-.23-1.97-1.59-3.42-2.35-5.14-.22-.49-.59-.93-.44-1.52,2.1-2.01,4.21-4.01,6.31-6.02.09.02.19.04.28.06.47.53.38,1.18.39,1.8.01,2.43,0,4.86,0,7.29,0,1.94.13,2.06,2.04,2.14.31.01.63-.02.91.19.56,1.79.44,3.66.58,5.49.35,4.59.66,9.19,1.01,13.78.18,2.42.44,4.85.1,7.29Z" style="fill:#e8664a; stroke-width:0px;"/><path d="M108.32,73.86c-.02,1.71-.03,3.43-.06,5.14-.02,1.68-.52,2.19-2.17,2.21-1.26.02-2.53.03-3.79.04-1.4-.02-2.8-.04-4.21-.05-1.71-.02-2.1-.37-2.11-2.04,0-4.12.01-8.23.02-12.35.36-.68.95-.88,1.69-.88,2.85,0,5.69-.06,8.54-.06,1.55,0,2.01.48,2.02,2.03.02,1.99.04,3.97.05,5.96Z" style="fill:#e15d41; stroke-width:0px;"/><path d="M64.72,75.42c-.98.94-1.02,2.27-1.31,3.46-.91,3.74-1.71,7.52-2.56,11.28-.66.11-.94-.43-1.32-.78-1.35-1.25-2.54-2.68-3.99-3.83-2.05-1.88-4.26-3.6-5.79-5.98,0-.17,0-.34.01-.51.41-1.12,1.52-1.49,2.34-2.16,2.4-1.98,4.68-4.11,7.24-5.9.4-.28.74-.68,1.3-.67.08,0,.16,0,.24,0,1.38,1.63,2.65,3.34,3.84,5.11Z" style="fill:#e7e6e8; stroke-width:0px;"/><path d="M42.92,85.56c.9,1.62,1.75,3.27,2.72,4.84.46.74.3,1.48.37,2.23.45.55.39,1.2.33,1.82-.54,5.5-.8,11.01-1.25,16.52-.14,1.76-.32,3.52-.36,5.28-.01.57.08,1.2-.5,1.61-1.61-6.96-3.21-13.91-4.82-20.87-.52-2.28-1.05-4.55-1.57-6.83,1.88-1.32,3.15-3.33,5.08-4.6Z" style="fill:#d4d8db; stroke-width:0px;"/><path d="M98.51,140.8c1.13-.63,2.35-.12,3.52-.28-1.13.6-2.36.1-3.52.28Z" style="fill:#e7e6e8; stroke-width:0px;"/><path d="M24.7,140.77c-1.44,0-2.88,0-4.32-.02-.48-3.38-.94-6.76-1.46-10.13-.67-4.39-1.39-8.77-2.09-13.16-.08-.48-.15-.95.08-1.52,2.6,8.27,5.2,16.55,7.8,24.82Z" style="fill:#10a9cc; stroke-width:0px;"/><path d="M121.63,124.74c.01,2.85.01,5.7.05,8.56,0,.66-.14.98-.89.97-6.07-.04-12.14-.04-18.21-.06-.36-.35-.4-.8-.41-1.26-.03-2.31-.03-4.62,0-6.92,0-.45.05-.91.4-1.26,6.35,0,12.71-.02,19.06-.03Z" style="fill:#2188b8; stroke-width:0px;"/><path d="M102.56,124.77c0,3.15,0,6.29,0,9.44-.18.03-.35.06-.53.09-5.62-.01-11.24-.05-16.87-.02-1.02,0-1.43-.2-1.38-1.32.09-2.4.03-4.8.02-7.2,0-.57-.04-1.07.8-1.07,5.98.04,11.97.06,17.95.08Z" style="fill:#1876ac; stroke-width:0px;"/><path d="M102.31,120.17c-.09.06-.19.13-.28.19-1.93-.34-3.88-.16-5.82-.18-1.9-.02-3.8-.03-5.69,0-.62,0-.75-.27-.75-.82-.03-2.77,0-5.53.58-8.24.39-1.82,1.24-3.37,2.86-4.43,1.17-.76,2.31-1.58,3.65-2.06.46.49.3,1.1.33,1.68.02.41-.15.97.08,1.19,1.58,1.52.82,3.73,1.69,5.44.9,1.77,1.54,3.67,2.59,5.36.05.08.12.13.2.18.11.06.21.13.32.2.14.13.24.28.33.45.06.11.09.23.12.35.05.26-.04.49-.21.69Z" style="fill:#475d6b; stroke-width:0px;"/><path d="M105,100.54c.26,1.44-.14,2.52-1.57,3.16-.43.19-.75.62-1.12.93-.15.07-.27.05-.38-.07-.44-1.5-1.46-3.11-2.58-4.05-1.47-1.17-2.12-2.94-3.17-4.41-.65-.9-.53-1.95.19-2.86.8.12.36.89.68,1.28.26-.79.28-1.6.29-2.41,0-.73.15-1.43.54-2.07.87-1.39,1.57-1.59,2.95-.73.61.38,1.42.35,1.87,1.01,0,2.88,0,5.75,0,8.63q0,1.76,1.78,1.52c.18-.02.36,0,.53.07Z" style="fill:#c6a28b; stroke-width:0px;"/><path d="M102.57,90.26c-.9-.01-1.69-.39-2.34-.95-.63-.54-1.02-.29-1.49.15-.74.7-1.08,1.57-1.04,2.55.05,1.01-.23,1.96-.3,2.95-.01.21.04.51-.28.52-.34.02-.41-.27-.48-.54-.14-.56.11-1.19-.28-1.71-.07-1.69-.28-3.4.23-5.07.39-1.26,1-2.18,2.53-2.39,1.11-.15,2.03-1.07,3.19-1.27.09.08.18.16.26.24.64.84.37,1.81.39,2.73.02.85.12,1.7,0,2.55-.07.18-.2.25-.38.22Z" style="fill:#485d6b; stroke-width:0px;"/><path d="M101.8,118.66c-.43.44-.5-.03-.62-.27-.99-2.07-2.16-4.08-2.87-6.24-.47-1.42-.29-2.97-1.32-4.36-.52-.71-.12-2.09-.13-3.17.52-.25.87-.87,1.58-.75.92.87.75,2.14,1.19,3.18.38,1.92.75,3.85,1.31,5.74.37,1.44.66,2.89.98,4.33.12.53.29,1.05-.12,1.53Z" style="fill:#3d4e57; stroke-width:0px;"/><path d="M99.3,107.05c-.29-1.06-.58-2.12-.87-3.18.07-.57.41-.94.9-1.2,1.28.1,2.01.98,2.7,1.92.09.01.18.02.27.03-.01.06-.01.13-.01.19-.41.72-1.12,1.12-1.74,1.61-.41.23-.64.81-1.25.62Z" style="fill:#fdfcfb; stroke-width:0px;"/><path d="M102.03,104.59c-.9-.64-1.8-1.28-2.7-1.92,0-.72,0-1.44,0-2.16q2.68.85,2.69,4.08Z" style="fill:#d5b8a0; stroke-width:0px;"/><path d="M102.31,120.17c0-.28,0-.57.01-.85.69-2.05,1.82-3.9,2.66-5.87.47-1.1,1.27-2.11.71-3.43-.09-.2-.04-.5.13-.63,1.16-.86,1.02-2.11,1.04-3.32,0-.49.05-1.01.62-1.24,2.18,1.09,4.41,2.11,5.69,4.37,1.11,1.96,1.13,4.16,1.3,6.31.11,1.44.56,3.24-.1,4.25-.73,1.12-2.66.35-4.05.4-2.67.09-5.34.02-8.01.02Z" style="fill:#3c4d56; stroke-width:0px;"/><path d="M102.57,90.26c.09-.04.18-.08.27-.12,1.11-.34,2.21-.06,3.28.12.73.13,1.01.84,1.25,1.47.31.8.47,1.63.47,2.51-.1.12.3.07.13,0-.01,0,.02-.04.05-.12.07-.17.16-.32.33-.4.38,1.2.28,2.17-.59,3.3-.9,1.19-1.48,2.63-2.77,3.53-2.63,1.28-2.7,1.24-2.7-1.64,0-2.4,0-4.8,0-7.21,0-.5-.05-1,.27-1.44Z" style="fill:#d5b79f; stroke-width:0px;"/><path d="M108.35,93.71s-.02.09-.04.13c-.22.46.16,1.38-.44,1.38-.65,0-.29-.87-.39-1.35-.13-.57-.19-1.16-.32-1.73-.25-1.07-.77-1.75-2.05-1.67-.75.04-1.51-.21-2.27-.33-.58-1.77-.12-3.59-.27-5.38,2.47.02,5.25,2.64,5.79,5.47.09,1.06.1,2.12,0,3.19,0,.1,0,.19,0,.29Z" style="fill:#3c4d57; stroke-width:0px;"/><path d="M107.49,104.82c-.38.62-.29,1.31-.29,1.99,0,.99.2,2.03-1.01,2.56-.35.15-.34.52-.14.82.56.82.22,1.54-.2,2.28-1.28,2.23-1.91,4.8-3.53,6.86,0,0-.03-.02-.03-.02-.43-1.29.2-2.48.39-3.7.1-.67.26-1.33.43-1.99.47-1.69.88-3.39,1.27-5.1.12-.52.15-1.08.6-1.46.31-1.07.61-2.14.93-3.24.61.25,1.14.55,1.57,1.02Z" style="fill:#485d6b; stroke-width:0px;"/><path d="M103.43,113.63c-.38,1.89-.75,3.78-1.13,5.67-.32-.07-.28-.33-.29-.56-.56-2.94-.37-5.92-.4-8.89,0-.56.22-1.19-.3-1.66-.46-.58-1.01-1.12-.9-1.96.63-.47,1.01-1.28,1.89-1.42.47.47.94.94,1.41,1.42-.73,2.44.14,4.94-.27,7.39Z" style="fill:#e7684c; stroke-width:0px;"/><path d="M103.43,113.63c-.17-1.68-.3-3.38-.53-5.05-.13-.95.42-1.6.8-2.34.43.27.86.54,1.29.81-.36,2.23-.83,4.44-1.56,6.59Z" style="fill:#d4d5d6; stroke-width:0px;"/><path d="M108.36,93.42c0-1.06,0-2.13,0-3.19.32,1.06.28,2.13,0,3.19Z" style="fill:#d5b79f; stroke-width:0px;"/><path d="M60.64,70.3c-3.62,2.91-7.25,5.83-10.87,8.74-.39-.31-.28-.74-.28-1.13,0-3.4.02-6.8-.02-10.2,0-.84.18-1.19,1.12-1.22,3.21-.09,6.25-.93,9.04-2.5.97-.55,1.03-.26,1.02.6-.03,1.9-.02,3.81-.02,5.71Z" style="fill:#c6a28a; stroke-width:0px;"/><path d="M49.76,79.55c2.04,1.88,3.82,4.02,6.02,5.73.12.2.19.44.08.65-.8,1.62-1.55,3.26-2.57,4.76-.13.19-.34.3-.58.31-.44.3-.94.28-1.44.27-1.57-.04-1.79-.24-1.79-1.79,0-3.29,0-6.59.01-9.88.08-.03.16-.05.25-.06Z" style="fill:#d95439; stroke-width:0px;"/><path d="M44.22,117.86c.59-8.41,1.19-16.82,1.78-25.23.4-1.23,1.46-1.74,2.72-1.33.3.1.46.26.47.57.02.32.02.63.02.95,0,14.79,0,29.58,0,44.37,0,.48.17,1-.22,1.43-.69-2.93-1.39-5.85-2.06-8.78-.91-3.99-1.8-7.98-2.7-11.97Z" style="fill:#d95438; stroke-width:0px;"/><path d="M52.72,91c1.21-1.8,2.22-3.71,3.06-5.71,1.69,1.62,3.39,3.25,5.08,4.87-2.11,9.14-4.22,18.29-6.33,27.43-.41-5.71-.84-11.42-1.23-17.14-.22-3.15-.59-6.29-.59-9.45Z" style="fill:#d4d8db; stroke-width:0px;"/><path d="M102.03,68.74c1.63.04,2.53.88,2.5,2.34-.03,1.41-.91,2.18-2.5,2.19-.65-1.51-.65-3.02,0-4.54Z" style="fill:#485d6b; stroke-width:0px;"/><path d="M102.03,68.74c0,1.51,0,3.02,0,4.54-1.37-.09-2.33-.98-2.38-2.19-.05-1.24.93-2.21,2.38-2.34Z" style="fill:#3f4d57; stroke-width:0px;"/><path d="M101.25,107.88c.99-.06.77.68.77,1.22,0,3.21,0,6.43,0,9.64-.08-.02-.15-.04-.22-.08-.39-1.96-.78-3.91-1.17-5.87-.02-1.24-.09-2.48.18-3.7.09-.43.04-.9.45-1.21Z" style="fill:#d85539; stroke-width:0px;"/><path d="M101.25,107.88c-.26,1.63-.03,3.32-.63,4.91-.67-1.86-1.04-3.79-1.32-5.73.37-.27.74-.55,1.1-.82.28.55.56,1.09.84,1.64Z" style="fill:#d4d5d7; stroke-width:0px;"/></g></svg>