<?xml version="1.0" encoding="UTF-8"?>
<svg id="footer-logo" data-name="footer-logo" xmlns="http://www.w3.org/2000/svg" viewBox="0 0 1585.36 492.91">
  <defs>
    <style>
      .cls-1 {
        font-size: 163.89px;
      }

      .cls-1, .cls-2, .cls-3 {
        fill: #a3d667;
      }

      .cls-1, .cls-3 {
        font-family: Metropolis-Black, Metropolis;
        font-weight: 800;
      }

      .cls-2, .cls-4 {
        stroke-width: 0px;
      }

      .cls-3 {
        font-size: 297.11px;
      }

      .cls-4 {
        fill: #fff;
      }

      .cls-5 {
        letter-spacing: -.07em;
      }

      .cls-6 {
        letter-spacing: -.05em;
      }
    </style>
  </defs>
  <g>
    <path class="cls-2" d="M122.35,394.71c-29.5,1.24-56.03-6.81-78.82-25.83-20.14-16.81-32.67-38.32-37.77-64.03-5.03-25.37-1.05-49.51,10.59-72.49.48-.94.89-1.92,1.33-2.88.01-1.49.76-2.69,1.52-3.89,18.11-28.64,43.81-46.08,77.17-52.13,5.09-.92,10.23-1.57,15.43-1.53,27.19-.45,51.5,7.76,72.81,24.6,9.38,7.41,17.49,16.06,23.58,26.46.04.39-.07.73-.33,1.03-4.6,1.59-9.5,1.43-14.21,2.46-21.6,4.73-40.3,14.6-56.04,30.3-17.72,17.67-27.86,38.97-31.1,63.52-3.28,24.89,1.88,48.23,14.62,69.87.65,1.11,1.46,2.15,1.62,3.5,0,.4-.13.74-.4,1.02Z"/>
    <path class="cls-2" d="M207.79,223.83c.1-.17.16-.35.18-.55.15-.36.41-.61.77-.77.53-.2,1.08-.29,1.64-.32,27.52-.84,52.17,7.19,74.05,23.87,9.46,7.22,17.13,16.07,23.9,25.78,10.58,15.52,16.75,32.74,18.39,51.34,1.73,19.77-.89,39.03-9.55,57.17-.47.98-1.01,1.86-1.93,2.46-3.71,5.85-6.81,12.07-11.06,17.6-19.34,25.17-44.72,40.53-76.2,43.69-43.97,4.41-79.03-12.25-104.78-48.26-.27-.38-.57-.75-.85-1.13.04-.15.05-.31.04-.47,1.5-1.4,3.46-1.4,5.29-1.62,22.52-2.73,42.26-11.57,59.33-26.52,21.56-18.89,33.59-42.8,36.73-71.03,2.6-23.35-2.41-45.36-13.96-65.86-.93-1.65-2.73-3.07-1.99-5.38Z"/>
    <path class="cls-2" d="M210.06,222.97l-1.41.07c-5.1-5.83-8.41-12.67-11.24-19.79-5.4-13.6-8.32-27.73-8.07-42.35.32-18.26,4.44-35.65,13.32-51.75,18.36-32.92,46.19-52.25,83.39-58.19,3.63-.58,7.23-.77,10.87-.3,28.69-.38,54.47,7.96,76.39,26.64,19.3,16.45,31.61,37.39,36.73,62.27,4.91,23.84,1.94,46.89-8.23,69-.29.64-.66,1.25-.99,1.87-.36.14-.71.11-1.04-.09-4.62-5.32-8.62-11.17-13.73-16.08-16.29-15.68-35.45-25.72-57.76-29.89-23.15-4.32-45.31-1.05-66.39,8.81-20.7,9.68-36.76,24.76-48.22,44.62-1.05,1.83-1.91,3.8-3.64,5.15Z"/>
    <path class="cls-2" d="M400.42,210.44c.14.01.28.02.42.01,11.25,16.92,17.48,35.45,18.67,55.81,3.19,54.31-34.25,103.65-88.23,114.61-5.3,1.08-10.58,2.27-16.05,1.94,3.46-8.71,7.04-17.34,8.78-26.65,5.49-29.44.62-56.87-15.45-82.23-.37-.58-.62-1.24-.93-1.86,2.49-2.08,5.61-1.18,8.4-1.62,36.61-5.74,63.94-24.73,82.04-57.04.62-1.11.97-2.44,2.33-2.97Z"/>
    <path class="cls-2" d="M111.88,172.84c-25.01.97-47.45,8.94-66.93,24.79-10.55,8.59-19.46,18.63-26.22,30.49-.28.5-.7.92-1.05,1.38-8.5-12.45-13.61-26.31-16.05-41.05-4.47-27.04.23-52.62,14.64-75.93,18.09-29.29,44.44-46.71,78.55-52.11,3.71-.59,7.47-.8,11.21-1.18.26.32.34.69.26,1.09-2.77,6.23-5.54,12.46-7.43,19.04-8.58,29.97-5.44,58.61,9.66,85.93,1.33,2.41,3.6,4.44,3.37,7.56Z"/>
    <path class="cls-2" d="M106.11,59.56c-.03-.11-.07-.23-.1-.34,3.13-7.32,7.81-13.64,12.9-19.64C136.8,18.44,159.56,5.51,186.81,1.36c26.4-4.02,51.43.85,74.48,14.74,14.55,8.77,26.29,20.44,35.64,34.57-6.46.95-13,1.2-19.4,2.7-23.84,5.59-43.97,17.31-60.09,35.84-5.35,6.16-9.83,12.88-13.9,19.91-1.64.09-2.07-1.34-2.82-2.3-2.52-3.24-5.01-6.49-7.74-9.58-18.94-21.45-42.92-32.99-71.05-36.44-3.96-.48-7.98-.04-11.98-.15-1.35-.04-2.88.35-3.85-1.1Z"/>
    <path class="cls-4" d="M207.79,223.83c6.97,11.69,12.49,23.96,15.1,37.41,6.9,35.53-1.29,67.31-24.61,94.84-17.74,20.94-40.77,32.94-67.82,37.26-2.67.43-5.38.61-8.06.91-7.5-12.35-13.15-25.4-15.74-39.72-5.66-31.27.76-59.94,19.27-85.55,17.85-24.69,42.44-39.12,72.41-44.28,3.08-.53,6.25-1.22,9.45-.87Z"/>
    <path class="cls-4" d="M106.11,59.56c10.96-.12,21.82.47,32.5,3.34,26.64,7.16,47.86,21.98,63.65,44.58.4.57.85,1.11,1.28,1.66-4.63,9.27-8.41,18.83-10.58,29.02-6.08,28.61-1.43,55.43,13.24,80.62.83,1.42,1.63,2.85,2.45,4.28-.23.08-.45.16-.68.24-4.03-4.9-7.6-10.14-11.94-14.82-14.12-15.23-31.15-25.63-51.08-31.36-10.81-3.11-21.84-4.46-33.07-4.27-7.32-11.63-13.05-23.94-15.98-37.43-5.57-25.62-2.61-50.23,8.91-73.79.36-.73.87-1.38,1.31-2.07Z"/>
    <path class="cls-4" d="M400.42,210.44c-7.52,16.25-18.83,29.41-33.12,40.01-17.7,13.12-37.59,20.43-59.65,21.62-6.16-8.04-12.5-15.9-20.32-22.45-17.83-14.93-38.24-23.62-61.41-26-5.3-.55-10.58-.3-15.86-.64,3.78-8.59,9.13-16.18,15.27-23.17,15.59-17.75,34.85-29.87,57.9-35.05,36.53-8.2,69.34-.04,98.1,24.09,7.45,6.25,13.71,13.53,19.09,21.6Z"/>
  </g>
  <g>
    <text class="cls-1" transform="translate(449.11 162.13)"><tspan x="0" y="0">FOUN</tspan><tspan class="cls-6" x="489.21" y="0">D</tspan><tspan class="cls-5" x="604.92" y="0">A</tspan><tspan x="718.33" y="0">TION</tspan></text>
    <text class="cls-3" transform="translate(457.63 403.48)"><tspan x="0" y="0">SIXTY6</tspan></text>
  </g>
</svg>