<?xml version="1.0" encoding="UTF-8"?><svg id="b" xmlns="http://www.w3.org/2000/svg" viewBox="0 0 340.43 387.7"><g id="c"><g id="d"><g id="e"><path id="f" d="M207.17,257.42c-.25.48-.47.98-.64,1.5q-.41,11.72,10.79,15.12c25.45,7.73,50.94,15.35,76.35,23.2,18.42,5.69,30.31,17.64,34.64,36.58,3.76,16.45,7.62,32.88,11.41,49.33.32,1.38.44,2.81.7,4.54H0c1.85-7.92,3.61-15.53,5.4-23.13,2.39-10.18,4.81-20.35,7.19-30.53,4.45-19.08,16.38-31.19,35.08-36.9,27.73-8.48,55.48-16.92,83.25-25.32,1.57-.48,3.13-1.02,4.88-1.59v-13.89c-3.6-1.14-5.57-.16-8.26,2.83-2.95,3.28-7.84,6.34-12.1,6.67-9.18.59-18.41.21-27.51-1.13-2.96-.41-6.02-4.08-7.97-6.96-7.48-11.04-10.55-23.77-12.86-36.62-6.33-35.3-8.03-71.09-3.96-106.47,3.28-28.57,14.1-55.49,33.8-77.76,7.31-8.27,16.07-14.63,27.06-17.45,1.07-.2,2.07-.68,2.89-1.39C142.63.9,163.43-.7,184.67.19c41.28,1.74,66.54,24.85,81.04,61.46,6.93,17.84,10.78,36.72,11.38,55.85,1.23,31.23,1.65,62.49-2.51,93.5-1.89,14.07-5.76,27.94-9.62,41.65-2.65,9.4-9.22,15.29-19.83,15.44-6.09.08-12.2.72-18.26.42-8.04-.41-15.14-3.15-19.7-11.09" style="fill:#1a1818; isolation:isolate; opacity:1; stroke-width:0px;"/></g></g></g></svg>