<?xml version="1.0" encoding="UTF-8"?><svg id="b" xmlns="http://www.w3.org/2000/svg" xmlns:xlink="http://www.w3.org/1999/xlink" viewBox="0 0 106.64 122.47"><defs><clipPath id="d"><rect width="106.64" height="122.47" style="fill:none; stroke-width:0px;"/></clipPath></defs><g id="c"><g style="clip-path:url(#d);"><g id="e"><path id="f" d="M37.24,57.3c3.63-1.27,7.22-2.53,10.82-3.79,1.44-.51,2.89-1,4.33-1.54.61-.24,1.29-.23,1.91,0,5.15,1.83,10.31,3.65,15.48,5.46q1.25.44,1.25-.93v-13.47c-.18-2.04,1.34-3.84,3.38-4.02.22-.02.44-.02.66,0,6.11-.01,12.22-.01,18.32,0,1.99-.21,3.77,1.22,3.98,3.21.02.21.03.42.01.64.06,4.02.05,8.05,0,12.07.06,2.01-1.52,3.68-3.52,3.74-.13,0-.27,0-.4,0-4.7.02-9.4,0-14.09.01-.31-.04-.62,0-.92.09-.49.22-.86.65-1.01,1.16-.05.42.65.43,1.03.57,4.86,1.72,9.73,3.42,14.6,5.12.58.2,1.05.44,1.15,1.18.14.41.37.79.68,1.1,3.8,5.19,7.62,10.37,11.43,15.54.45.61.48.82-.32,1.09-3.56,1.18-7.09,2.46-10.65,3.63-.78.12-1.31.86-1.19,1.63.05,5.3,0,10.6.05,15.9.11.92-.48,1.77-1.38,1.98-12.87,4.85-25.73,9.72-38.58,14.62-.57.25-1.22.26-1.8.03-12.91-4.92-25.83-9.82-38.75-14.69-.84-.2-1.39-1.01-1.28-1.86.03-5.39,0-10.79.03-16.19.1-.63-.31-1.22-.93-1.34-3.65-1.22-7.27-2.51-10.91-3.73-.7-.23-.82-.38-.34-1.02,4.05-5.47,8.08-10.95,12.09-16.45.62-.9,1.52-1.57,2.57-1.9,2.64-.85,5.25-1.83,7.88-2.73.52-.18.66-.3.34-.88-2.09-3.57-.89-8.16,2.68-10.25,1.63-.95,3.55-1.26,5.4-.85,2.99.55,5.31,2.92,5.8,5.92.07.3.13.6.21.96M52.27,83.86l-.18-.05c-.21.27-.42.54-.62.81-3.23,4.4-6.48,8.8-9.69,13.22-.22.46-.78.65-1.24.43-.01,0-.03-.01-.04-.02-8.32-2.89-16.65-5.75-24.97-8.64-.75-.26-1-.24-.99.67.04,4.83.03,9.67,0,14.5-.1.59.28,1.15.86,1.28,9.27,3.48,18.53,6.99,27.79,10.53,2.75,1.04,5.51,2.05,8.23,3.13.78.31.93.1.85-.62-.01-.28-.01-.56,0-.84v-34.41ZM54.55,83.78l-.18.05v2.95c0,10.73-.02,21.45-.03,32.18,0,1.05,0,1.06,1,.69,12.01-4.55,24.02-9.1,36.03-13.64.49-.12.8-.59.73-1.09-.02-4.87-.01-9.73-.01-14.59q0-1.03-1.01-.68c-8.3,2.86-16.6,5.72-24.89,8.59-.48.26-1.07.08-1.33-.39,0-.01-.01-.03-.02-.04-1.81-2.55-3.67-5.06-5.52-7.56-1.58-2.15-3.16-4.3-4.75-6.45M40.35,95.99c.28.02.36-.22.48-.38,3.46-4.7,6.92-9.4,10.37-14.1.43-.58.23-.74-.34-.94-11.96-4.11-23.92-8.24-35.87-12.37-.44-.22-.98-.05-1.2.39,0,0,0,.02-.01.03-3.3,4.54-6.63,9.07-9.96,13.58-.71.96-.71.96.39,1.34l35.52,12.24c.21.07.42.14.62.21M103.45,83.08c-.14-.21-.27-.42-.42-.62-3.36-4.57-6.74-9.14-10.07-13.74-.28-.54-.94-.75-1.48-.47-.02,0-.04.02-.05.03-11.8,4.09-23.61,8.17-35.43,12.22-.81.28-.96.47-.42,1.21,3.37,4.53,6.72,9.08,10.03,13.65.25.49.84.68,1.33.44.01,0,.03-.01.04-.02,11.8-4.09,23.61-8.16,35.43-12.22.38-.07.73-.23,1.03-.47M17.09,66.58c.14.36.44.33.66.4,11.66,4.03,23.33,8.06,35,12.09.41.14.86.13,1.26-.03,11.22-3.88,22.45-7.75,33.67-11.62.64-.22,1.27-.46,1.95-.71-.13-.11-.16-.16-.21-.18-4.42-1.56-8.84-3.11-13.26-4.68-.31-.15-.69-.04-.88.24-.69.77-1.41,1.51-2.09,2.27-.4.44-.82.84-1.45.6s-.71-.8-.7-1.39c0-.94-.04-1.87.02-2.81.03-.58-.22-.8-.73-.98-5.46-1.91-10.91-3.83-16.36-5.76-.37-.15-.79-.16-1.17-.03-5.05,1.79-10.09,3.57-15.13,5.34-.45.12-.8.46-.95.9-1.38,3.91-5.67,5.95-9.58,4.57-.54-.19-1.06-.45-1.55-.76-.24-.14-.42-.33-.76-.21-2.57.93-5.16,1.83-7.75,2.74M73.09,61.39c1.36-1.46,2.57-2.71,3.71-4.01.44-.53,1.11-.82,1.79-.78,4.89.03,9.77.02,14.66.01,1.49,0,2.04-.55,2.04-2.03,0-3.84,0-7.67,0-11.51,0-1.46-.55-2.01-2.05-2.01-2.47-.01-4.95,0-7.42,0-3.57,0-7.14,0-10.72,0-1.33,0-2.02.61-2.02,1.79,0,6.08,0,12.16,0,18.53M29.66,52.29c-3,0-5.44,2.43-5.44,5.43,0,3,2.43,5.44,5.43,5.44,3,0,5.44-2.43,5.44-5.43,0,0,0-.02,0-.02,0-2.99-2.42-5.41-5.41-5.41,0,0-.02,0-.03,0" style="fill:#101010; stroke-width:0px;"/><path id="g" d="M46.91.03c2.27-.21,4.5.73,5.93,2.51.43.54.58.45.97-.02,2.37-2.9,6.64-3.33,9.54-.96,1.24,1.01,2.08,2.43,2.37,4,.02.41.36.73.77.71,3.67.44,6.28,3.78,5.84,7.45-.09.76-.31,1.5-.66,2.19-.3.6-.31.84.33,1.19,3.16,1.69,4.36,5.62,2.67,8.78-.56,1.05-1.4,1.93-2.43,2.54-.56.34-.62.52-.3,1.09,1.63,2.98.54,6.71-2.43,8.35-.65.36-1.35.59-2.08.7-.63.11-.79.28-.79.91-.02,3.95-3.23,7.13-7.18,7.11-2.19,0-4.25-1.02-5.6-2.74-.49-.63-.65-.55-1.09.02-2.44,3.1-6.94,3.64-10.04,1.19-1.69-1.33-2.7-3.36-2.73-5.52,0-.64-.12-.87-.81-.99-3.35-.47-5.68-3.57-5.21-6.92.11-.82.39-1.6.82-2.3.25-.47.12-.58-.26-.82-3.14-1.74-4.27-5.69-2.53-8.82.63-1.13,1.58-2.05,2.73-2.64.6-.34.49-.58.25-1.06-1.69-3.29-.39-7.32,2.9-9.01.71-.37,1.48-.6,2.28-.69.6-.08.67-.37.76-.84.51-2.97,2.98-5.2,5.98-5.41M52.33,23.1V7.39c0-.53-.04-1.06-.14-1.58-.54-2.55-3.04-4.18-5.59-3.64-2.18.46-3.75,2.39-3.75,4.62.07,1.29-.19,1.56-1.45,1.51-1.99-.18-3.88.93-4.68,2.76-.82,1.79-.39,3.9,1.06,5.23.41.3.61.81.51,1.31-.16.6-.68.67-1.17.77-2.18.35-3.8,2.2-3.87,4.4.01,2.18,1.56,4.04,3.7,4.44.52.12.97.3,1.11.86s-.21.87-.57,1.19c-.84.67-1.37,1.66-1.47,2.73-.25,2.25,1.37,4.29,3.63,4.54.44.05.88.03,1.32-.07.87-.15,1.47.24,1.43.99-.04.34-.11.67-.22,1-.55,2.73,1.22,5.39,3.95,5.94.09.02.19.03.28.05,2.81.42,5.43-1.52,5.85-4.34.05-.34.07-.68.05-1.01.02-5.33,0-10.66,0-15.99M54.33,23.05c0,5.33-.02,10.66,0,15.99-.14,2.13,1.06,4.12,3.01,4.99,1.76.9,3.89.62,5.37-.7,1.61-1.24,2.28-3.35,1.67-5.29-.31-1.16.17-1.77,1.25-1.59,1.83.39,3.7-.48,4.57-2.14.88-1.7.46-3.79-1.02-5.01-.38-.35-.76-.68-.59-1.26.16-.56.62-.71,1.14-.83,2.43-.45,4.03-2.79,3.58-5.22-.35-1.88-1.85-3.33-3.74-3.61-.49-.1-1.03-.14-1.21-.73-.13-.53.08-1.08.53-1.39,1.04-.94,1.56-2.32,1.4-3.71-.19-2.55-2.42-4.45-4.96-4.26-.05,0-.09,0-.14.01-1.11.04-1.51-.3-1.44-1.28.15-2.58-1.82-4.8-4.4-4.95-.54-.03-1.08.03-1.6.18-2.15.62-3.58,2.67-3.43,4.9-.01,5.3,0,10.6,0,15.9" style="fill:#141414; stroke-width:0px;"/><path id="h" d="M17.3,43.25c-1.31,0-2.63.01-3.94,0-1-.01-1.34-.36-1.35-1.37-.01-1.5-.03-2.99,0-4.49.07-.55-.21-1.09-.71-1.34-5.37-3.26-7.07-10.26-3.81-15.63,1.64-2.7,4.34-4.6,7.44-5.23,5.48-1.18,11.01,1.76,13.08,6.97,2.03,5.1.12,10.92-4.54,13.82-.57.26-.9.85-.84,1.47.06,1.46.03,2.92.02,4.39,0,1.06-.35,1.39-1.41,1.4-1.31,0-2.63,0-3.94,0M17.25,41.2c.81,0,1.63-.04,2.44.01.68.04.95-.15.92-.88-.06-1.37.01-2.74-.03-4.11-.07-.63.29-1.23.88-1.47,4.17-2,6.23-6.77,4.83-11.18-1.55-4.95-6.82-7.71-11.77-6.16-4.22,1.32-6.94,5.4-6.55,9.8.28,3.27,2.28,6.15,5.26,7.56.56.22.91.79.85,1.39-.03,1.43.01,2.87-.02,4.3-.01.57.17.78.75.75.81-.04,1.63,0,2.44,0" style="fill:#060706; stroke-width:0px;"/><path id="i" d="M17.23,45.76h-4.04c-.68,0-1.2-.21-1.21-.97-.01-.8.5-1.08,1.23-1.08h8.17c.7,0,1.21.3,1.23,1,.02.76-.5,1.07-1.25,1.06-1.38-.02-2.76,0-4.13,0h0Z" style="fill:#060706; stroke-width:0px;"/><path id="j" d="M17.26,46.12c1.38,0,2.76.01,4.13,0,.71,0,1.19.29,1.2,1s-.46,1.05-1.16,1.05c-2.75,0-5.51,0-8.26,0-.68,0-1.19-.26-1.19-1.01,0-.8.52-1.05,1.25-1.04,1.35.01,2.69,0,4.04,0" style="fill:#060706; stroke-width:0px;"/><path id="k" d="M17.27,48.52h2.53c.53-.08,1.02.29,1.1.81,0,.06.01.12,0,.19.04.54-.36,1-.9,1.05-.06,0-.12,0-.18,0-1.69.03-3.37.03-5.06,0-.53.07-1.02-.31-1.09-.85,0-.06,0-.12,0-.17,0-.75.46-1.03,1.16-1.03h2.44Z" style="fill:#060706; stroke-width:0px;"/><path id="l" d="M52.28,83.86v34.39c-.01.28-.01.56,0,.84.08.71-.07.93-.85.62-2.73-1.09-5.49-2.09-8.23-3.13-9.26-3.51-18.52-7.02-27.79-10.53-.58-.13-.96-.69-.86-1.28.03-4.83.04-9.67,0-14.5,0-.9.24-.93.99-.67,8.32,2.89,16.66,5.74,24.97,8.64.45.25,1.01.09,1.26-.36,0-.02.02-.03.02-.05,3.21-4.42,6.45-8.82,9.69-13.22.2-.28.42-.54.62-.81l.18.05" style="fill:#fbfdfe; stroke-width:0px;"/><path id="m" d="M54.56,83.78c1.58,2.15,3.17,4.3,4.75,6.45,1.85,2.52,3.71,5.02,5.53,7.56.24.49.83.69,1.31.45.01,0,.03-.01.04-.02,8.29-2.88,16.59-5.75,24.89-8.59,1.01-.35,1.01-.35,1.01.68,0,4.87,0,9.73.01,14.59.07.5-.24.97-.73,1.09-12.02,4.54-24.03,9.08-36.03,13.65-.99.37-1,.37-1-.69,0-10.73.02-21.45.03-32.18v-2.95l.18-.05M60.72,110.76c.09-.02.19-.04.28-.06,2.94-1.02,5.89-2.04,8.82-3.08.51-.11.83-.61.72-1.12-.02-.07-.04-.14-.07-.21-.17-.52-.72-.81-1.24-.64-.05.01-.09.03-.13.05-1.01.33-2,.7-3,1.05-1.88.66-3.76,1.32-5.64,1.98-.55.11-.9.63-.8,1.18,0,0,0,0,0,.01.07.52.54.89,1.07.84" style="fill:#fbfdfe; stroke-width:0px;"/><path id="n" d="M40.35,95.99c-.2-.07-.42-.14-.62-.21l-35.52-12.24c-1.1-.38-1.1-.38-.39-1.34,3.33-4.52,6.65-9.05,9.96-13.58.21-.45.74-.64,1.19-.43,0,0,.02,0,.03.01,11.95,4.14,23.91,8.26,35.87,12.37.57.2.76.36.34.94-3.47,4.69-6.93,9.39-10.37,14.1-.12.17-.2.4-.48.38" style="fill:#fbfdfe; stroke-width:0px;"/><path id="o" d="M103.45,83.08c-.3.24-.65.4-1.03.47-11.81,4.07-23.62,8.15-35.43,12.22-.48.27-1.08.1-1.35-.38,0-.01-.01-.02-.02-.04-3.32-4.57-6.66-9.12-10.03-13.65-.56-.74-.4-.93.42-1.21,11.82-4.05,23.63-8.12,35.43-12.22.52-.31,1.19-.14,1.5.39.01.02.02.03.03.05,3.32,4.6,6.71,9.16,10.07,13.74.15.2.28.42.42.62" style="fill:#fbfdfe; stroke-width:0px;"/><path id="p" d="M17.09,66.58c2.59-.91,5.17-1.81,7.75-2.74.34-.12.52.07.76.21,3.49,2.24,8.13,1.22,10.37-2.27.31-.48.56-1,.76-1.55.15-.44.5-.78.95-.9,5.04-1.76,10.08-3.54,15.11-5.33.38-.13.8-.12,1.17.03,5.45,1.93,10.9,3.85,16.36,5.76.51.18.76.4.73.98-.05.93,0,1.87-.02,2.81,0,.59.06,1.16.7,1.39s1.06-.16,1.45-.6c.69-.77,1.41-1.51,2.09-2.27.19-.29.57-.39.88-.24,4.41,1.57,8.84,3.12,13.26,4.68.05.02.09.07.21.18-.68.25-1.31.49-1.95.71-11.23,3.87-22.45,7.74-33.67,11.61-.4.16-.85.18-1.26.03-11.66-4.04-23.33-8.06-35-12.09-.22-.08-.52-.05-.66-.4M45.01,66.7v6.92c0,1.1.3,1.44,1.35,1.44,4.63.01,9.27.01,13.9,0,1.03,0,1.35-.34,1.35-1.35,0-4.64,0-9.29,0-13.93,0-1.03-.29-1.31-1.36-1.32-4.63,0-9.27,0-13.9,0-1.1,0-1.35.28-1.36,1.41v6.82" style="fill:#fbfdfe; stroke-width:0px;"/><path id="q" d="M73.09,61.38v-18.53c0-1.19.69-1.79,2.02-1.79,3.57-.01,7.14,0,10.72,0,2.47,0,4.95,0,7.42,0,1.5,0,2.05.56,2.05,2.01v11.51c0,1.48-.55,2.02-2.04,2.03-4.89,0-9.77.01-14.66-.01-.69-.04-1.36.25-1.79.78-1.14,1.31-2.35,2.55-3.71,4.01M84.35,51.67h5.81c.71,0,1.26-.28,1.28-1.05,0-.73-.51-1.03-1.19-1.03-4,0-7.99,0-11.99,0-.52-.07-1,.29-1.07.81,0,.07-.01.14,0,.22.02.88.65,1.05,1.36,1.05,1.94,0,3.87,0,5.81,0M84.26,46.29h5.73c.97,0,1.51-.38,1.45-1.05-.08-.84-.67-1.01-1.41-1.01-3.82.01-7.64.01-11.46,0-.73,0-1.34.14-1.39,1.01-.04.7.45,1.05,1.44,1.05h5.64" style="fill:#fbfdfe; stroke-width:0px;"/><path id="r" d="M29.67,52.28c3,.02,5.42,2.48,5.39,5.48-.02,3-2.48,5.42-5.48,5.39-2.98-.02-5.39-2.44-5.39-5.42,0-3,2.42-5.44,5.42-5.45.02,0,.04,0,.06,0M27.04,56.35h-1.03c-.68,0-1.07.33-1.06,1.02.01.65.42.94,1.03.96.56.04,1.13.04,1.69,0,.78-.08.97.25.92.96-.03.59-.01,1.18.05,1.77.01.55.47.99,1.03.97s.99-.47.97-1.03c0-.01,0-.03,0-.04,0-.62.03-1.25,0-1.87-.03-.56.15-.8.74-.77.66.04,1.31.02,1.97,0,.51.05.95-.33,1-.83,0-.05,0-.11,0-.16.04-.5-.33-.94-.83-.98-.06,0-.12,0-.18,0-.47-.02-.94,0-1.41,0q-1.29,0-1.29-1.24c0-.47,0-.94,0-1.4.07-.51-.29-.97-.79-1.04-.05,0-.1,0-.15,0-.51-.07-.98.29-1.05.8,0,.05,0,.09,0,.14-.04.4-.05.81-.05,1.21q0,1.53-1.54,1.53" style="fill:#fbfdfe; stroke-width:0px;"/><path id="s" d="M52.33,23.1c0,5.33.02,10.66,0,15.99.14,2.84-2.04,5.26-4.89,5.4-.34.02-.68,0-1.01-.05-2.76-.39-4.67-2.94-4.28-5.7.01-.09.03-.19.05-.28.1-.33.17-.66.22-1,.03-.74-.56-1.14-1.43-.99-2.22.47-4.4-.94-4.88-3.16-.09-.43-.11-.88-.07-1.32.1-1.07.63-2.06,1.47-2.73.36-.32.71-.65.57-1.19s-.59-.74-1.11-.86c-2.14-.41-3.69-2.27-3.7-4.44.06-2.21,1.68-4.06,3.86-4.41.49-.1,1.01-.17,1.17-.77.1-.5-.1-1.01-.51-1.31-1.45-1.33-1.88-3.44-1.06-5.23.8-1.83,2.69-2.95,4.68-2.77,1.26.05,1.52-.22,1.45-1.51,0-2.61,2.11-4.72,4.72-4.72,2.23,0,4.16,1.56,4.62,3.75.09.52.14,1.05.14,1.58,0,5.24,0,10.47,0,15.71M40.68,19.04c.09,2.05.97,3.98,2.46,5.39,1.47,1.44,3.41,2.28,5.47,2.37.68.04,1.3-.15,1.34-.97.04-.79-.46-1.06-1.2-1.09-.53-.03-1.05-.12-1.56-.28-2.48-.7-4.25-2.88-4.42-5.45-.07-.71-.11-1.42-1.04-1.49-.74-.06-1.09.49-1.03,1.53M50.35,10.51c-.1-2.33-2.06-4.14-4.38-4.06-.56-.02-1.02.41-1.04.97,0,.07,0,.13.01.2.11.54.6.92,1.15.9,1.15-.05,2.13.84,2.2,1.99,0,1.05-.76,1.83-2.05,2.06-.12.02-.25.02-.37.04-.53,0-.95.44-.94.97,0,.04,0,.07,0,.11.03.57.51,1,1.07.97,0,0,0,0,0,0,2.34.05,4.28-1.79,4.35-4.13M50.35,35.82c-.02-1.98-1.46-3.66-3.42-4-1.15-.27-1.92,0-1.99.76-.1,1.06.68,1.12,1.48,1.24,1.01.09,1.8.91,1.86,1.92.02,1.01-.73,1.88-1.74,2.01-.21.06-.43.09-.64.11-.52-.02-.96.4-.98.92,0,.04,0,.08,0,.12.01.57.49,1.02,1.06,1.01.03,0,.05,0,.08,0,2.3.02,4.2-1.79,4.29-4.09" style="fill:#fbfdfe; stroke-width:0px;"/><path id="t" d="M54.33,23.05c0-5.3,0-10.6,0-15.9-.15-2.24,1.28-4.29,3.43-4.91,2.48-.73,5.09.69,5.82,3.17.15.52.21,1.06.18,1.6-.07.97.32,1.32,1.44,1.28,2.54-.27,4.82,1.57,5.08,4.11,0,.05,0,.1.01.14.16,1.39-.36,2.77-1.4,3.71-.45.31-.66.86-.53,1.39.18.59.72.63,1.21.73,2.45.37,4.13,2.65,3.77,5.09-.28,1.89-1.73,3.39-3.61,3.74-.52.12-.97.27-1.14.83-.17.58.21.91.59,1.26,1.47,1.22,1.9,3.31,1.02,5.01-.87,1.66-2.74,2.54-4.57,2.14-1.08-.18-1.56.43-1.25,1.59.61,1.94-.06,4.05-1.67,5.29-1.47,1.32-3.61,1.59-5.37.7-1.95-.87-3.15-2.86-3.01-4.99-.02-5.33,0-10.66,0-15.99M66.01,18.56c.05-.52-.33-.98-.85-1.04-.03,0-.06,0-.09,0-.78-.06-1.11.44-1.13,1.17,0,.06-.02.12-.02.19-.17,3.2-2.76,5.74-5.96,5.86-.73.06-1.23.26-1.24,1.06,0,.67.53,1.04,1.41,1,4.38-.27,7.82-3.86,7.9-8.24M56.3,10.52c.07,2.3,1.96,4.12,4.26,4.11.65-.01,1.13-.32,1.16-.97.03-.64-.35-1.01-1.04-1.09-.4-.04-.8-.14-1.17-.31-.96-.4-1.4-1.5-1-2.46.18-.42.5-.76.91-.96.38-.22.81-.34,1.25-.35.54.04,1-.36,1.04-.9,0-.06,0-.12,0-.18-.03-.65-.47-.96-1.14-.97-2.29-.01-4.18,1.79-4.27,4.08M56.31,35.82c.09,2.29,1.98,4.11,4.28,4.09.57.06,1.08-.35,1.14-.92,0-.03,0-.06,0-.08.05-.53-.34-1-.87-1.05-.03,0-.06,0-.09,0-.4-.04-.8-.14-1.17-.3-.73-.26-1.22-.95-1.22-1.72-.02-.77.44-1.48,1.15-1.78.36-.18.76-.29,1.17-.3.53.04.99-.35,1.03-.88,0-.07,0-.14,0-.2-.04-.65-.49-.95-1.16-.97-2.29,0-4.17,1.81-4.26,4.1" style="fill:#fbfdfe; stroke-width:0px;"/><path id="u" d="M17.25,41.2c-.81,0-1.63-.03-2.44,0-.58.03-.76-.19-.75-.75.03-1.43-.02-2.87.02-4.3.06-.6-.29-1.17-.85-1.39-2.97-1.4-4.97-4.28-5.26-7.55-.46-5.17,3.36-9.73,8.53-10.19,4.4-.39,8.47,2.34,9.79,6.55,1.4,4.41-.66,9.18-4.83,11.18-.59.24-.95.84-.88,1.47.04,1.37-.03,2.74.03,4.11.03.73-.24.92-.92.88-.81-.05-1.63-.01-2.44-.01" style="fill:#fbfdfe; stroke-width:0px;"/><path id="v" d="M60.72,110.76c-.52.05-.99-.32-1.07-.84-.11-.54.24-1.08.78-1.19,0,0,0,0,.01,0,1.88-.66,3.76-1.32,5.64-1.98,1-.35,1.99-.72,3-1.05.49-.24,1.09-.04,1.33.46.02.04.04.09.05.13.23.47.03,1.03-.44,1.26-.07.03-.14.06-.21.07-2.94,1.04-5.88,2.06-8.82,3.08-.09.03-.18.05-.28.06" style="fill:#060706; stroke-width:0px;"/><path id="w" d="M45.02,66.7v-6.82c0-1.13.26-1.41,1.36-1.41,4.63,0,9.27,0,13.9,0,1.06,0,1.35.28,1.36,1.32,0,4.64,0,9.29,0,13.93,0,1.01-.32,1.35-1.35,1.35-4.63.01-9.27.01-13.9,0-1.06,0-1.35-.34-1.35-1.44v-6.92M59.57,66.79c0-1.84-.01-3.68,0-5.51,0-.53-.09-.78-.71-.77-3.69.03-7.38.03-11.07,0-.6,0-.73.21-.73.76.02,3.68.02,7.35,0,11.03,0,.58.2.74.76.74,3.66-.02,7.32-.03,10.98,0,.65,0,.78-.24.77-.82-.03-1.81-.01-3.62,0-5.42" style="fill:#060706; stroke-width:0px;"/><path id="x" d="M84.34,51.67h-5.81c-.71,0-1.34-.17-1.36-1.05-.05-.52.34-.98.86-1.03.07,0,.14,0,.22,0,4-.01,7.99-.01,11.99,0,.68,0,1.2.3,1.19,1.03-.01.77-.57,1.05-1.28,1.05h-5.81" style="fill:#060706; stroke-width:0px;"/><path id="y" d="M84.25,46.29h-5.64c-.99,0-1.49-.35-1.44-1.05.05-.87.66-1.01,1.39-1.01,3.82.01,7.64.01,11.46,0,.74,0,1.33.17,1.41,1.01.06.68-.48,1.05-1.45,1.05h-5.73" style="fill:#060706; stroke-width:0px;"/><path id="z" d="M27.04,56.35q1.54,0,1.54-1.53c0-.4,0-.81.05-1.21,0-.52.41-.94.92-.95.05,0,.09,0,.14,0,.51-.02.94.38.96.89,0,.05,0,.1,0,.15v1.4q0,1.23,1.29,1.24c.47,0,.94-.01,1.41,0,.5-.06.95.3,1,.8,0,.06,0,.12,0,.18.04.51-.33.95-.84,1-.05,0-.11,0-.16,0-.66.02-1.32.04-1.97,0-.59-.03-.77.21-.74.77.04.62,0,1.25,0,1.87.04.55-.38,1.03-.93,1.07s-1.03-.38-1.07-.93c0-.01,0-.03,0-.04-.06-.59-.08-1.18-.05-1.77.05-.71-.14-1.04-.92-.96-.56.04-1.13.04-1.69,0-.62-.02-1.02-.3-1.03-.96-.01-.7.38-1.02,1.06-1.02h1.03" style="fill:#060706; stroke-width:0px;"/><path id="aa" d="M40.68,19.03c-.06-1.04.29-1.58,1.03-1.53.94.07.97.79,1.04,1.49.17,2.57,1.94,4.75,4.42,5.45.51.16,1.03.25,1.56.28.74.03,1.24.3,1.2,1.09-.04.81-.66,1.01-1.34.97-2.05-.08-4-.93-5.47-2.37-1.49-1.41-2.37-3.35-2.46-5.4" style="fill:#060706; stroke-width:0px;"/><path id="ab" d="M50.35,10.51c-.07,2.33-2.01,4.17-4.34,4.12-.57.03-1.05-.4-1.08-.97,0,0,0,0,0,0-.07-.52.3-1,.83-1.07.04,0,.07,0,.11,0,.12-.02.25-.02.37-.04,1.29-.23,2.06-1,2.05-2.06-.07-1.15-1.05-2.03-2.2-1.99-.55.03-1.04-.36-1.15-.9-.09-.55.28-1.07.83-1.16.07-.01.13-.01.2-.01,2.33-.07,4.28,1.74,4.38,4.06" style="fill:#060706; stroke-width:0px;"/><path id="ac" d="M50.35,35.82c-.09,2.3-1.99,4.1-4.29,4.09-.57.06-1.07-.35-1.13-.92,0-.03,0-.05,0-.08-.05-.52.33-.99.85-1.04.04,0,.08,0,.12,0,.22-.02.43-.06.64-.11,1.01-.13,1.76-.99,1.74-2.01-.06-1.01-.85-1.82-1.86-1.92-.79-.12-1.57-.18-1.48-1.24.07-.76.84-1.03,1.99-.76,1.95.33,3.39,2.02,3.42,4" style="fill:#060706; stroke-width:0px;"/><path id="ad" d="M66.02,18.55c-.08,4.39-3.52,7.97-7.9,8.24-.87.04-1.42-.33-1.41-1,0-.8.52-1,1.24-1.06,3.21-.11,5.79-2.66,5.97-5.86,0-.06.02-.12.02-.19.02-.73.35-1.23,1.13-1.17.52,0,.95.42.95.94,0,.03,0,.06,0,.09" style="fill:#060706; stroke-width:0px;"/><path id="ae" d="M56.31,10.52c.1-2.29,1.98-4.09,4.27-4.08.67.02,1.11.32,1.14.97.06.54-.33,1.01-.87,1.07-.06,0-.12,0-.17,0-.44,0-.87.13-1.25.35-.93.45-1.33,1.57-.87,2.51.2.41.54.74.96.91.37.17.76.27,1.17.31.68.07,1.07.45,1.04,1.09-.03.66-.51.96-1.16.97-2.3,0-4.19-1.81-4.26-4.11" style="fill:#060706; stroke-width:0px;"/><path id="af" d="M56.31,35.81c.08-2.29,1.97-4.1,4.26-4.1.67.02,1.11.32,1.16.97.07.52-.3,1.01-.82,1.07-.07,0-.13.01-.2,0-.41.01-.81.11-1.17.3-.71.3-1.17,1.01-1.15,1.78,0,.77.49,1.46,1.22,1.72.37.15.77.25,1.17.3.53,0,.97.43.97.97,0,.03,0,.06,0,.09-.02.57-.49,1.02-1.06,1-.03,0-.06,0-.08,0-2.3.01-4.19-1.8-4.28-4.09" style="fill:#060706; stroke-width:0px;"/><path id="ag" d="M59.57,66.79c0,1.81-.02,3.62,0,5.42,0,.58-.12.82-.77.82-3.66-.03-7.32-.02-10.98,0-.56,0-.76-.15-.76-.74.02-3.68.02-7.35,0-11.03,0-.55.13-.76.73-.76,3.69.02,7.38.02,11.07,0,.62,0,.72.25.71.77-.02,1.84,0,3.68,0,5.51M53.47,67.94c-.84-1.28-1.57-2.44-2.34-3.57-.25-.47-.83-.65-1.3-.4-.03.02-.06.04-.09.06-.47.22-.68.77-.46,1.24.03.07.07.14.12.2,1.06,1.68,2.13,3.37,3.24,5.02.25.5.86.71,1.36.46.24-.12.42-.32.51-.58,1.14-2.11,2.23-4.24,3.33-6.37.3-.43.2-1.02-.23-1.32-.06-.04-.12-.07-.19-.1-.72-.36-1.18.03-1.5.65-.79,1.51-1.58,3.02-2.47,4.71" style="fill:#fbfdfe; stroke-width:0px;"/><path id="ah" d="M53.47,67.94c.88-1.68,1.67-3.19,2.47-4.71.33-.62.78-1.01,1.5-.65.49.2.72.75.52,1.24-.03.07-.06.13-.1.19-1.1,2.13-2.19,4.26-3.33,6.37-.19.53-.77.81-1.3.62-.25-.09-.46-.27-.58-.51-1.11-1.65-2.18-3.34-3.24-5.02-.33-.4-.26-.99.14-1.32.06-.05.13-.09.2-.12.44-.3,1.04-.19,1.34.25.02.03.04.06.06.09.76,1.13,1.5,2.29,2.34,3.57" style="fill:#060706; stroke-width:0px;"/></g></g></g></svg>