<?xml version="1.0" encoding="UTF-8"?>
<svg id="Layer_2" data-name="Layer 2" xmlns="http://www.w3.org/2000/svg" viewBox="0 0 1574.54 444.8">
  <defs>
    <style>
      .cls-1 {
        fill: #a3d667;
      }

      .cls-1, .cls-2, .cls-3, .cls-4, .cls-5, .cls-6, .cls-7 {
        stroke-width: 0px;
      }

      .cls-2 {
        fill: #ffb133;
      }

      .cls-3 {
        fill: #fff;
      }

      .cls-4 {
        fill: #70cbd6;
      }

      .cls-5 {
        fill: #ec2e91;
      }

      .cls-6 {
        fill: #8c63a8;
      }

      .cls-7 {
        fill: #3a53a4;
      }
    </style>
  </defs>
  <g id="Layer_1-2" data-name="Layer 1">
    <g>
      <path class="cls-4" d="m122.35,394.71c-29.5,1.24-56.03-6.81-78.82-25.83-20.14-16.81-32.67-38.32-37.77-64.03-5.03-25.37-1.05-49.51,10.59-72.49.48-.94.89-1.92,1.33-2.88.01-1.49.76-2.69,1.52-3.89,18.11-28.64,43.81-46.08,77.17-52.13,5.09-.92,10.23-1.57,15.43-1.53,27.19-.45,51.5,7.76,72.81,24.6,9.38,7.41,17.49,16.06,23.58,26.46.04.39-.07.73-.33,1.03-4.6,1.59-9.5,1.43-14.21,2.46-21.6,4.73-40.3,14.6-56.04,30.3-17.72,17.67-27.86,38.97-31.1,63.52-3.28,24.89,1.88,48.23,14.62,69.87.65,1.11,1.46,2.15,1.62,3.5,0,.4-.13.74-.4,1.02Z"/>
      <path class="cls-1" d="m207.79,223.83c.1-.17.16-.35.18-.55.15-.36.41-.61.77-.77.53-.2,1.08-.29,1.64-.32,27.52-.84,52.17,7.19,74.05,23.87,9.46,7.22,17.13,16.07,23.9,25.78,10.58,15.52,16.75,32.74,18.39,51.34,1.73,19.77-.89,39.03-9.55,57.17-.47.98-1.01,1.86-1.93,2.46-3.71,5.85-6.81,12.07-11.06,17.6-19.34,25.17-44.72,40.53-76.2,43.69-43.97,4.41-79.03-12.25-104.78-48.26-.27-.38-.57-.75-.85-1.13.04-.15.05-.31.04-.47,1.5-1.4,3.46-1.4,5.29-1.62,22.52-2.73,42.26-11.57,59.33-26.52,21.56-18.89,33.59-42.8,36.73-71.03,2.6-23.35-2.41-45.36-13.96-65.86-.93-1.65-2.73-3.07-1.99-5.38Z"/>
      <path class="cls-7" d="m210.06,222.97l-1.41.07c-5.1-5.83-8.41-12.67-11.24-19.79-5.4-13.6-8.32-27.73-8.07-42.35.32-18.26,4.44-35.65,13.32-51.75,18.36-32.92,46.19-52.25,83.39-58.19,3.63-.58,7.23-.77,10.87-.3,28.69-.38,54.47,7.96,76.39,26.64,19.3,16.45,31.61,37.39,36.73,62.27,4.91,23.84,1.94,46.89-8.23,69-.29.64-.66,1.25-.99,1.87-.36.14-.71.11-1.04-.09-4.62-5.32-8.62-11.17-13.73-16.08-16.29-15.68-35.45-25.72-57.76-29.89-23.15-4.32-45.31-1.05-66.39,8.81-20.7,9.68-36.76,24.76-48.22,44.62-1.05,1.83-1.91,3.8-3.64,5.15Z"/>
      <path class="cls-6" d="m400.42,210.44c.14.01.28.02.42.01,11.25,16.92,17.48,35.45,18.67,55.81,3.19,54.31-34.25,103.65-88.23,114.61-5.3,1.08-10.58,2.27-16.05,1.94,3.46-8.71,7.04-17.34,8.78-26.65,5.49-29.44.62-56.87-15.45-82.23-.37-.58-.62-1.24-.93-1.86,2.49-2.08,5.61-1.18,8.4-1.62,36.61-5.74,63.94-24.73,82.04-57.04.62-1.11.97-2.44,2.33-2.97Z"/>
      <path class="cls-5" d="m111.88,172.84c-25.01.97-47.45,8.94-66.93,24.79-10.55,8.59-19.46,18.63-26.22,30.49-.28.5-.7.92-1.05,1.38-8.5-12.45-13.61-26.31-16.05-41.05-4.47-27.04.23-52.62,14.64-75.93,18.09-29.29,44.44-46.71,78.55-52.11,3.71-.59,7.47-.8,11.21-1.18.26.32.34.69.26,1.09-2.77,6.23-5.54,12.46-7.43,19.04-8.58,29.97-5.44,58.61,9.66,85.93,1.33,2.41,3.6,4.44,3.37,7.56Z"/>
      <path class="cls-2" d="m106.11,59.56c-.03-.11-.07-.23-.1-.34,3.13-7.32,7.81-13.64,12.9-19.64C136.8,18.44,159.56,5.51,186.81,1.36c26.4-4.02,51.43.85,74.48,14.74,14.55,8.77,26.29,20.44,35.64,34.57-6.46.95-13,1.2-19.4,2.7-23.84,5.59-43.97,17.31-60.09,35.84-5.35,6.16-9.83,12.88-13.9,19.91-1.64.09-2.07-1.34-2.82-2.3-2.52-3.24-5.01-6.49-7.74-9.58-18.94-21.45-42.92-32.99-71.05-36.44-3.96-.48-7.98-.04-11.98-.15-1.35-.04-2.88.35-3.85-1.1Z"/>
      <path class="cls-3" d="m207.79,223.83c6.97,11.69,12.49,23.96,15.1,37.41,6.9,35.53-1.29,67.31-24.61,94.84-17.74,20.94-40.77,32.94-67.82,37.26-2.67.43-5.38.61-8.06.91-7.5-12.35-13.15-25.4-15.74-39.72-5.66-31.27.76-59.94,19.27-85.55,17.85-24.69,42.44-39.12,72.41-44.28,3.08-.53,6.25-1.22,9.45-.87Z"/>
      <path class="cls-3" d="m106.11,59.56c10.96-.12,21.82.47,32.5,3.34,26.64,7.16,47.86,21.98,63.65,44.58.4.57.85,1.11,1.28,1.66-4.63,9.27-8.41,18.83-10.58,29.02-6.08,28.61-1.43,55.43,13.24,80.62.83,1.42,1.63,2.85,2.45,4.28-.23.08-.45.16-.68.24-4.03-4.9-7.6-10.14-11.94-14.82-14.12-15.23-31.15-25.63-51.08-31.36-10.81-3.11-21.84-4.46-33.07-4.27-7.32-11.63-13.05-23.94-15.98-37.43-5.57-25.62-2.61-50.23,8.91-73.79.36-.73.87-1.38,1.31-2.07Z"/>
      <path class="cls-3" d="m400.42,210.44c-7.52,16.25-18.83,29.41-33.12,40.01-17.7,13.12-37.59,20.43-59.65,21.62-6.16-8.04-12.5-15.9-20.32-22.45-17.83-14.93-38.24-23.62-61.41-26-5.3-.55-10.58-.3-15.86-.64,3.78-8.59,9.13-16.18,15.27-23.17,15.59-17.75,34.85-29.87,57.9-35.05,36.53-8.2,69.34-.04,98.1,24.09,7.45,6.25,13.71,13.53,19.09,21.6Z"/>
    </g>
    <g>
      <g>
        <path class="cls-1" d="m491.72,77.88v15.9h53.59v28.35h-53.59v39.99h-31.8V49.53h90.63v28.35h-58.84Z"/>
        <path class="cls-1" d="m559.73,105.75c0-31.63,28.03-58.18,61.3-58.18s61.3,26.55,61.3,58.18-28.03,58.35-61.3,58.35-61.3-26.71-61.3-58.35Zm89.81,0c0-15.9-13.11-29.34-28.52-29.34s-28.52,13.44-28.52,29.34,13.11,29.5,28.52,29.5,28.52-13.44,28.52-29.5Z"/>
        <path class="cls-1" d="m694.12,112.14v-62.61h31.79v60.97c0,14.42,9.01,24.75,21.8,24.75s21.8-10.33,21.8-24.75v-60.97h31.79v62.61c0,30.48-22.12,51.95-53.59,51.95s-53.59-21.47-53.59-51.95Z"/>
        <path class="cls-1" d="m819.99,49.53h31.79l43.92,60.31v-60.31h31.8v112.6h-31.8l-43.92-60.31v60.31h-31.79V49.53Z"/>
        <path class="cls-1" d="m949.13,49.53h41.96c39.33,0,67.2,23.27,67.2,56.22s-27.86,56.38-67.2,56.38h-41.96V49.53Zm47.2,83.75c17.04,0,29.17-11.47,29.17-27.53s-12.13-27.37-29.17-27.37h-15.41v54.9h15.41Z"/>
        <path class="cls-1" d="m1136.46,147.05h-39.17l-5.74,15.08h-35.89l43.27-112.6h35.89l43.27,112.6h-35.89l-5.74-15.08Zm-9.01-23.44l-10.49-27.37-10.65,27.37h21.14Z"/>
        <path class="cls-1" d="m1203.99,77.88h-33.27v-28.35h98.34v28.35h-33.27v84.24h-31.79v-84.24Z"/>
        <path class="cls-1" d="m1283.15,49.53h31.79v112.6h-31.79V49.53Z"/>
        <path class="cls-1" d="m1329.69,105.75c0-31.63,28.03-58.18,61.3-58.18s61.3,26.55,61.3,58.18-28.03,58.35-61.3,58.35-61.3-26.71-61.3-58.35Zm89.81,0c0-15.9-13.11-29.34-28.52-29.34s-28.52,13.44-28.52,29.34,13.11,29.5,28.52,29.5,28.52-13.44,28.52-29.5Z"/>
        <path class="cls-1" d="m1467.03,49.53h31.79l43.92,60.31v-60.31h31.8v112.6h-31.8l-43.92-60.31v60.31h-31.79V49.53Z"/>
      </g>
      <g>
        <path class="cls-1" d="m462.09,372.58l32.09-38.33c20.8,16.34,43.38,24.96,67.44,24.96,15.75,0,24.07-5.35,24.07-14.26,0-9.8-7.13-11.29-35.36-17.83-44.27-10.1-78.44-21.69-78.44-64.17s32.09-67.15,80.52-67.15c35.35,0,62.99,9.51,85.57,27.63l-28.82,40.7c-19.01-13.67-39.81-20.5-58.23-20.5-13.96,0-20.8,5.65-20.8,13.37,0,10.4,7.13,13.67,36.25,19.91,47.54,10.1,77.25,22.88,77.25,61.8,0,43.08-32.98,68.33-84.08,68.33-36.84,0-71.6-11.59-97.45-34.46Z"/>
        <path class="cls-1" d="m670.06,199.37h57.64v204.11h-57.64v-204.11Z"/>
        <path class="cls-1" d="m890.81,300.98l72.49,102.5h-67.44l-38.92-54.96-39.22,54.96h-66.25l72.49-101.61-72.49-102.5h67.44l38.92,54.96,39.22-54.96h66.25l-72.49,101.61Z"/>
        <path class="cls-1" d="m1033.72,250.77h-60.31v-51.4h178.26v51.4h-60.31v152.71h-57.64v-152.71Z"/>
        <path class="cls-1" d="m1238.13,336.34l-78.44-136.96h65.96l41.3,82.89,43.67-82.89h63.28l-78.14,136.96v67.15h-57.64v-67.15Z"/>
        <path class="cls-1" d="m1564.95,334.26c0,44.57-36.25,72.79-82.3,72.79-62.39,0-92.99-41.3-92.99-101.91,0-65.66,38.03-109.33,101.31-109.33,25.85,0,47.83,7.73,65.66,20.5l-26.14,43.38c-12.18-8.91-23.47-13.67-38.92-13.67-21.69,0-35.06,12.48-40.11,35.35,11.88-7.72,28.22-12.78,44.27-12.78,38.03,0,69.23,24.96,69.23,65.66Zm-59.42,2.38c0-13.96-13.37-21.99-28.22-21.99-11.59,0-21.39,5.94-27.04,15.75,2.67,19.91,10.1,27.93,28.52,27.93,16.04,0,26.74-9.21,26.74-21.69Z"/>
      </g>
    </g>
  </g>
</svg>