<?xml version="1.0" encoding="UTF-8"?><svg id="b" xmlns="http://www.w3.org/2000/svg" viewBox="0 0 132.92 106.84"><g id="c"><g id="d"><g id="e"><path id="f" d="M0,53.09c1.72-1.04,3.62-.6,5.41-.46,1.36.1,1.3,1.56,1.43,2.53,1.09,7.33,1.7,14.72,1.81,22.13-.01,4.65-.46,3.81,4.01,3.85,7.08.05,14.17.01,21.26.01,1.05,0,2.53-.21,2.6,1.11.08,1.41,1.37,3.27-.79,4.32-1.03.5-.53,1.4-.54,2.1-.05,5.13-.11,10.25.01,15.38.04,1.79-.33,2.45-2.28,2.37-3.69-.14-3.69-.01-3.69-3.83q0-5.07-5.07-5.07c-4.87,0-9.74.05-14.61-.03-1.46-.02-2.14.41-2.1,1.92-.03.79-.14,1.58-.33,2.34-1.06,5.3-1.86,5.79-7.12,4.42v-2.12C3.8,87.78,3.12,71.5,0,55.22v-2.13Z" style="fill:#070807; stroke-width:0px;"/><path id="g" d="M64.91,0c3.84.68,7.51,2.14,10.78,4.28,8.52,6.27,8.21,17.71-.71,23.46-4.99,3.34-11.18,4.35-16.97,2.77-2.41-.79-5.04-.59-7.3.56-1.18.54-2.39,1.01-3.62,1.42-.13-.26-.31-.46-.26-.54,2.15-3.46,1.73-6.19-.89-9.66-4.31-5.72-2-13.77,4.17-18.27,2.73-2,5.96-2.7,8.96-4.02h5.85Z" style="fill:#070808; stroke-width:0px;"/><path id="h" d="M0,55.21c1.81,3.67,1.98,7.74,2.51,11.66,1.72,11.62,1.21,23.46-1.51,34.88C.8,102.56.84,103.52,0,104.06v-48.84Z" style="fill:#fbfcfb; stroke-width:0px;"/><path id="i" d="M32.49,52c0,4.88.04,9.47-.03,14.05-.02,1.32.64,1.39,1.63,1.37,3.81-.03,7.62-.03,11.43,0,3.82.02,5.68,1.83,5.7,5.7.04,8.05.04,16.1,0,24.15-.02,4.24-1.68,5.85-5.96,5.93q-4.31.09-4.31-4.18c0-6.19-.1-12.39.05-18.57.06-2.23-.35-3.04-2.83-2.96-6.2.22-12.41.08-18.61.07-4.93-.01-8.28-3.03-8.36-7.95-.14-8.4-.12-16.81,0-25.21-.15-4.3,3.17-7.92,7.47-8.14,2.2-.21,4.43-.15,6.62.15,2.33.22,4.35,1.71,5.23,3.88.61,1.45,1.85,2.55,3.37,2.98,1.93.59,3.8,1.38,5.57,2.36,2.34,1.39,3.78.79,5.21-1.31,1.44-2.01,2.98-3.94,4.62-5.8,1.39-1.72,3.88-2.05,5.66-.76,1.89.97,2.64,3.29,1.67,5.18-.05.1-.11.2-.17.29-2.25,3.9-4.96,7.5-8.08,10.74-2.11,2.09-4.86,1.78-7.47.95-2.74-.87-5.43-1.87-8.43-2.92" style="fill:#070807; stroke-width:0px;"/><path id="j" d="M122.9,56.27c0,4.25.02,8.49,0,12.74-.02,5.39-3.16,8.53-8.54,8.56-6.21.02-12.42.11-18.62-.07-2.25-.07-2.68.7-2.65,2.72.1,6.99-.01,13.98.08,20.97.02,1.63-.4,2.23-2.05,2.03-1.23-.15-2.48,0-3.72-.12-2.51-.1-4.48-2.18-4.44-4.69-.09-8.58-.14-17.16-.1-25.74.02-3.41,2.06-5.23,5.59-5.26,3.72-.03,7.45-.06,11.17.02,1.41.03,2.07-.24,1.99-1.85-.15-3.18-.11-6.37-.16-9.55-.01-.77.11-1.92-1.2-1.07-1.86,1.19-3.86.98-5.89.95-3.81-.06-7.62.01-11.44,0-2.97-.02-4.45-1.41-4.39-4.07.05-2.6,1.6-4,4.5-4.03,2.92-.18,5.85-.16,8.77.06,4.88.63,7.48-2.23,9.87-5.66.2-.29.38-.59.55-.9,3.39-6.19,7.9-8.09,14.87-6.27,3.6,1.09,5.99,4.48,5.81,8.24.04,4.33,0,8.67,0,13.01" style="fill:#070807; stroke-width:0px;"/><path id="k" d="M71.8,85.92c0,6-.08,12.02.04,18.03.04,1.9-.37,2.63-2.45,2.62-5.86-.04-5.86.05-5.86-5.79,0-11.05-.06-22.1.06-33.14.02-2.07-.6-2.49-2.51-2.41-3.54.15-7.08-.02-10.62.08-1.51.04-2.15-.18-2.14-1.95.01-5.53-.08-5.53,5.43-5.53,10.45,0,20.9.05,31.36-.04,1.81-.02,2.4.38,2.36,2.29-.1,5.2,0,5.2-5.26,5.2-2.75,0-5.5.1-8.24-.04-1.67-.08-2.26.31-2.22,2.13.12,6.19.05,12.37.05,18.56" style="fill:#060707; stroke-width:0px;"/><path id="l" d="M126.07,64.51c0-4.33-.03-8.67.01-13-.21-1.86,1.12-3.54,2.98-3.75.34-.04.69-.03,1.03.04,2.27.31,2.92,1.47,2.49,4.16-.95,6.65-1.06,13.4-.32,20.08.3,3.34.52,6.69.64,10.04.09,2.48-.96,3.41-3.54,3.42-3.81.02-7.62.06-11.43-.02-1.42-.03-1.95.28-2,1.85-.15,4.19-.25,4.18,3.77,5.35,3.71.9,7,3.03,9.35,6.03.97.99,1.03,2.55.14,3.6-.59,1.06-1.89,1.5-3,1.02-1.39-.41-2.18-1.86-1.77-3.25.02-.06.04-.11.06-.17.59-1.43-.13-1.86-1.05-2.41-2.01-1.27-4.27-2.1-6.62-2.44-.74-.08-1.95-.81-2.18.56-.15.89-.82,2.12.62,2.77.24.12.45.29.61.5,1.03,1.08,1.02,2.78-.02,3.85-.92,1.12-2.58,1.29-3.7.36-.03-.03-.07-.06-.1-.09-1.13-.95-1.36-2.6-.55-3.83.17-.32.43-.58.74-.75,1.39-.84.66-2.15.48-3.11-.2-1.09-1.33-.33-2.02-.32-2.12.12-4.18.73-6.02,1.79-1.26.64-3.06,1.04-1.54,3.28.66.97-.18,2.19-1.19,2.94-.94.74-2.28.71-3.19-.06-1.01-.65-1.4-1.93-.92-3.03.55-1.77,1.66-3.3,3.17-4.37,2.71-1.82,5.79-3.02,9.03-3.49,1.39-.19,1.98-.68,1.75-2.11-.1-.79-.14-1.59-.12-2.38,0-1.49-.54-2.17-2.22-2.1-3.27.14-6.56.11-9.83,0-1.23-.04-3.19.95-3.03-1.82s.98-4,3.39-4.03c3.81-.04,7.62-.01,11.43-.01,4.08,0,8.16-.1,12.23.04,1.9.07,2.63-.31,2.54-2.41-.19-4.24-.06-8.49-.06-12.73" style="fill:#070807; stroke-width:0px;"/><path id="m" d="M12.15,22.08c.02-5.96,4.88-10.77,10.84-10.75s10.77,4.88,10.75,10.84c-.02,5.93-4.83,10.73-10.76,10.75-5.87.11-10.72-4.56-10.83-10.43,0-.13,0-.27,0-.4" style="fill:#070807; stroke-width:0px;"/><path id="n" d="M116.61,22.45c.08,5.95-4.68,10.83-10.63,10.9s-10.83-4.68-10.9-10.63c0-.14,0-.28,0-.42.1-5.94,5-10.68,10.94-10.58,5.86.1,10.57,4.87,10.59,10.73" style="fill:#070807; stroke-width:0px;"/><path id="o" d="M84.78,19.14c4.49,4.6,4.71,10.16.21,14.64-2.04,2.03.7,3.23.17,5.19-2.92-1.97-5.95-1.45-9.19-.83-4.78,1-9.74-.47-13.2-3.91,12.69-1.39,16.24-3.85,22.01-15.09" style="fill:#060707; stroke-width:0px;"/><path id="p" d="M18.48,95.02c-2.84,0-5.68-.14-8.5.05-2.04.14-2.19-.78-1.84-2.31.12-.52.26-1.03.34-1.55.2-1.47-.58-3.43.49-4.31,1.23-1.01,3.23-.32,4.88-.34,4.43-.05,8.86.04,13.29-.05,1.49-.03,2.15.18,2.16,1.96.03,6.56.11,6.56-6.56,6.56h-4.26" style="fill:#feffff; stroke-width:0px;"/><path id="q" d="M49.66,29.25c1.92-2.4,1.36-3.77-.38-5.5-5.13-5.1-4.66-12.48.82-17.25,7.79-6.31,19.05-5.87,26.32,1.03,4.61,4.53,4.67,11.94.14,16.54-.33.34-.69.66-1.06.95-4.65,3.81-10.84,5.2-16.68,3.75-4.45-.95-4.43-1.02-9.16.48" style="fill:#fff; stroke-width:0px;"/><path id="r" d="M54.42,13.24c1.83.04,2.64.9,2.73,2.26.15,1.19-.68,2.27-1.87,2.43-.11.01-.22.02-.32.02-1.17.13-2.22-.72-2.34-1.89-.01-.12-.02-.24,0-.36-.09-1.16.68-2.21,1.81-2.46" style="fill:#0b0c0b; stroke-width:0px;"/><path id="s" d="M65.21,15.59c-.21,1.41-.98,2.41-2.39,2.36-1.29-.04-2.3-1.12-2.25-2.41.04-1.25,1.05-2.24,2.3-2.26,1.52-.01,2.08,1.05,2.34,2.31" style="fill:#0b0c0b; stroke-width:0px;"/><path id="t" d="M73.16,15.64c-.18,1.44-1.02,2.37-2.4,2.31-1.17.05-2.16-.86-2.2-2.03,0-.13,0-.25.02-.38-.09-1.15.76-2.16,1.92-2.25.13-.01.26,0,.39,0,1.5.01,2.08,1.05,2.27,2.35" style="fill:#0b0c0b; stroke-width:0px;"/></g></g></g></svg>