<?xml version="1.0" encoding="UTF-8"?><svg id="b" xmlns="http://www.w3.org/2000/svg" viewBox="0 0 109.34 109.34"><g id="c"><path d="M109.31,95.89c0,4.19-.02,8.38.02,12.57,0,.72-.13.88-.87.88-30.14-.02-60.28-.02-90.41-.02-5.75,0-11.5,0-17.25.01-.55,0-.8,0-.8-.73C.03,72.64.03,36.68,0,.72,0,.14.11,0,.71,0,36.67.03,72.63.03,108.59,0c.84,0,.73.37.73.9,0,28.4,0,56.8,0,85.2-.57-.05-.57-.55-.72-.92-1.37-3.49-4.12-5.39-7.83-5.39-1.98,0-3.96,0-5.94,0-2.2.06-4.39.02-6.59.02-2.11-.02-4.22.1-6.32-.07-.53-.13-.78-.58-1.08-.97-3.17-4.11-9.24-3.65-11.7.9-.23.43-.38.94-.98,1.03-3.34-1.4-6.85-.75-10.3-.9-2.23.04-4.46.03-6.69,0-1.99,0-3.97.07-5.96-.04-.58-.09-.9-.52-1.22-.95-1.5-2.05-3.58-2.89-6.06-2.87-.4,0-.88.2-1.08-.38-.08-.24-.11-.49-.11-.74,0-7.56-.05-15.12.02-22.69-.02-8.7-.01-17.39,0-26.09,0-.53-.17-1.3.6-1.39.72-.08,1.12.51,1.36,1.15.19.51.15,1.05.16,1.58,0,3.73,0,7.45,0,11.18,0,.75.05,1.49.44,2.16.9,1.53,2.72,2.05,4.47,1.14,2.2-1.16,4.24-2.59,6.37-3.86.59-.35,1.12-.9,1.92-.8.48.29.42.79.44,1.24.03.78-.01,1.56.02,2.34.1,1.96,1.3,3.15,3.26,3.19,1.74.03,3.48,0,5.22,0,12.89,0,25.78,0,38.66,0,.46,0,.92.01,1.38-.02,1.6-.11,2.77-1.22,2.96-2.83.05-.42.04-.85.04-1.28,0-9.8,0-19.6,0-29.4,0-.32,0-.64-.01-.96-.13-2.18-1.36-3.39-3.54-3.41-2.91-.03-5.82,0-8.73,0-11.54,0-23.08,0-34.62,0-.46,0-.92-.01-1.38.01-1.77.09-2.9,1.11-3.18,2.86-.09.56-.06,1.13-.06,1.7,0,5.29,0,10.58,0,15.87,0,.48-.14,1.01.32,1.39.71.42.97,1.19,1.37,1.84.89,1.43,1.88,2.81,2.53,4.38-.26.66-.74.97-1.45.93-.96-.78-1.34-1.98-2.03-2.95-.45-.63-.84-1.31-1.21-2-.36-.66-.78-.7-1.38-.31-1.19.77-2.4,1.51-3.6,2.26-1.18.73-1.52.53-1.57-.88-.07-2.01.12-4.03-.17-6.04-.64-4.37-3.9-7.29-8.35-7.39-1.38-.03-2.76,0-4.14,0-1.1.03-2.2.03-3.3,0-.99,0-1.98-.04-2.96,0-.94.04-1.13.31-.65,1.1.58.97.6,1.84-.07,2.75-.69.94-.64,1.96-.4,3.04.11.52.48,1.17-.28,1.57-.4-.25-.48-.69-.64-1.07-.86-2.06-1.59-4.18-2.4-6.26-.3-.77-.75-1.13-1.58-1.11-1.28.03-2.55,0-3.82.19-4.21.63-7.19,3.82-7.23,8.05-.08,7.66-.02,15.33-.03,22.99,0,.9.38,1.18,1.22,1.16,1.38-.03,2.77,0,4.15-.01,1.11-.02,1.22-.13,1.23-1.23.02-2.94,0-5.89,0-8.83,0-4.4,0-8.8,0-13.2,0-.76.07-1.5.76-2,.72-.52,1.2-.33,1.34.53.04.21.04.42.04.64,0,8.66.02,17.31,0,25.97,0,3.36.09,6.73-.04,10.09-.09.56-.48.73-.99.78-2.85.25-5.96,2.52-6.18,6.53-.19,3.59,2.25,6.59,5.8,7.17.51.08,1.11-.02,1.32.66.09.69.21,1.38-.18,2.03-.78.46-1.63.2-2.45.27-.38.03-.77-.04-1.14.05-2.26-.05-4.53-.19-6.79.12-4.08.56-6.96,3.77-7.05,7.92-.03,1.7,0,3.4,0,5.1.02.14.02.28.02.43,0,2.33-.21,2.14,2.21,2.15.96,0,1.92,0,2.88,0,1.21-.01,1.28-.09,1.3-1.25,0-.5,0-.99.01-1.49-.05-1.46-.02-2.91-.02-4.37,0-.39.03-.78.18-1.15.21-.49.56-.86,1.12-.82.65.05.6.63.61,1.06.06,2.16.01,4.33.03,6.5,0,1.46.05,1.51,1.48,1.51,3.44,0,6.89,0,10.33,0,.53,0,1.07-.05,1.57.19.38.33.13.67-.04.94-1.09,1.81-1.31,3.79-1.23,5.85.04,1.13.02,2.27,0,3.4.04.63,0,1.27.02,1.9.01.6.28.92.89.93,1.55.03,3.1.01,4.65,0,.57,0,.83-.27.84-.84,0-.7-.01-1.41.01-2.12-.05-1.38-.02-2.77-.02-4.15,0-.32.02-.64.11-.95.18-.58.51-1.11,1.16-1.06.75.05.64.75.65,1.25.05,2.13,0,4.26.02,6.39.01,1.36.12,1.47,1.45,1.47,5.04,0,10.08,0,15.12,0,1.39,0,1.49-.11,1.5-1.54.01-2.02-.02-4.05.02-6.07.01-.59-.2-1.38.7-1.54.6-.11,1.17.65,1.2,1.61.05,1.52.05,3.05,0,4.57.03.7,0,1.41.02,2.11.02.56.29.84.85.85,1.59.03,3.17.03,4.76,0,.53,0,.74-.3.76-.81.02-.67-.02-1.34.02-2.01-.02-1.63-.04-3.26,0-4.88.04-1.38-.26-2.66-.89-3.88-.18-.35-.53-.7-.24-1.17,1.44-.39,2.88-.34,4.32-.03.31.28.16.61.02.87-1.13,2.16-1.18,4.48-1.12,6.83.02.74.02,1.49,0,2.23.03.64,0,1.27.02,1.91,0,.61.31.92.91.93,1.52.04,3.04.04,4.57,0,.6-.02.9-.34.91-.94.02-.67,0-1.35.01-2.02-.05-1.46-.02-2.91-.02-4.37,0-.32.01-.64.14-.94.22-.52.56-.97,1.18-.87.59.09.58.66.59,1.11.06,2.16,0,4.33.03,6.49.01,1.42.11,1.53,1.5,1.53,5,0,10.01,0,15.01,0,1.23,0,1.33-.11,1.34-1.34.02-1.81,0-3.62,0-5.43,0-.35-.02-.71.01-1.06.06-.58-.06-1.35.82-1.35.8,0,1.21.6,1.27,1.33.13,1.63.07,3.26.04,4.89.03.7,0,1.41.02,2.12.02.55.29.84.85.85,1.59.03,3.18.03,4.76,0,.53,0,.74-.3.76-.81.02-.67-.02-1.34.02-2.01-.02-1.56-.04-3.12,0-4.68.04-1.42-.28-2.73-.91-3.99-.2-.39-.54-.78-.21-1.27.42-.26.88-.19,1.34-.2,2.11,0,4.22,0,6.33,0,.41,0,.86.09,1.15-.33.27-.76.13-1.55.14-2.33.03-1.81-.02-3.62.03-5.43.01-.45,0-1,.6-1.11.6-.11,1,.26,1.28.76.21.38.25.81.25,1.24,0,1.42.04,2.84-.01,4.25.03.6.04,1.21.01,1.81-.04.84.35,1.13,1.14,1.11,1.38-.02,2.77-.01,4.15,0,.49,0,1-.04,1.42.32Z" style="fill:#fff; stroke-width:0px;"/><path d="M81.68,79.5c2.19,0,4.38,0,6.57.01.35.15.73.25,1.07.42,1.52.74,3.05.74,4.57.03.38-.18.81-.25,1.17-.46,2.3,0,4.61-.07,6.91,0,2.77.09,5.92,2.63,6.87,5.44.13.39.17.82.46,1.14v6.6c-.06.04-.11.12-.17.12-2.28.31-4.55.42-6.82-.06-.02-1.48-.03-2.96-.05-4.45,0-.35.04-.7-.13-1.04-.21-.41-.53-.75-.96-.71-.58.06-.33.61-.33.94-.04,2.72-.04,5.44-.06,8.16-.87.26-1.75.1-2.63.11-2.23.03-4.46,0-6.69.01-.49.05-.76-.31-1.06-.6-1.73-1.68-3.77-2.54-6.21-2.43-.68.03-1.42.2-2.04-.29-.44-1.4-.12-2.85-.21-4.27-.03-.53.02-1.07-.52-1.39-.24-.36-.03-.68.11-.99.81-1.78.88-3.58.18-5.42-.11-.29-.26-.59-.05-.9Z" style="fill:#5dc2a4; stroke-width:0px;"/><path d="M102.32,92.76c2.33-.02,4.66-.04,6.99-.07v3.2c-2.04-.02-4.09-.06-6.13-.04-.67,0-.96-.15-.9-.87.07-.73.03-1.48.04-2.22Z" style="fill:#813c1e; stroke-width:0px;"/><path d="M53.03,28.21c-.22.1-.45.19-.68.29-.22-.31-.11-.64-.11-.94,0-5.89,0-11.79,0-17.68,0-2.81,1.29-4.1,4.09-4.1,14.66,0,29.33,0,43.99,0,2.8,0,4.09,1.29,4.09,4.11,0,10.15,0,20.31,0,30.46,0,2.75-1.29,4.04-4.03,4.04-14.7,0-29.4,0-44.09,0-2.76,0-4-1.29-4.06-4.03-.02-1.04.27-2.1-.2-3.11.9-1.11,2.18-1.64,3.39-2.27.5-.16.93-.43,1.29-.81.94-1.03,1.53-2.2,1.54-3.62,1.64-1.57,3.52-2.84,5.28-4.27,1.87-1.52,3.79-2.99,5.68-4.48.11-.09.23-.17.33-.27.78-.71.94-1.5.42-2.15-.51-.64-1.36-.71-2.19-.11-2.37,1.75-4.61,3.66-6.96,5.43-1.5,1.13-2.86,2.44-4.48,3.4-1.11-.18-2.2.03-3.3.1Z" style="fill:#46748d; stroke-width:0px;"/><path d="M17.96,52.01c0-8.52-.01-17.04-.02-25.56,0-.18.03-.36,0-.53-.09-.37.26-1.02-.24-1.08-.62-.07-1.12.41-1.25,1.08-.06.31-.03.64-.03.96,0,7.53-.02,15.06.03,22.58,0,1.02-.32,1.22-1.24,1.18-1.74-.07-3.48-.04-5.22,0-.55,0-.81-.07-.81-.73.02-7.99-.05-15.98.04-23.97.05-4.8,3.88-8.3,8.91-8.4,1.03-.02,2.06.04,3.09-.02.61-.03.86.19,1.06.74.99,2.67,2.04,5.32,3.07,7.98.75.88.95,2.01,1.37,3.04.38.94.74,1.89,1.14,2.82-.04,6.05,0,12.11-.02,18.16,0,.59.09,1.21-.25,1.76-.58.38-1.24.5-1.91.52-2.18.06-4.37.04-6.55.01-.46,0-.94-.02-1.17-.53Z" style="fill:#252e5c; stroke-width:0px;"/><path d="M27.49,52c0-6.27,0-12.54.01-18.82,0-.5-.03-.99.2-1.46-.28-.33-.12-.67.01-.99.65-1.6,1.23-3.23,1.74-4.88,1.04-2.15,1.72-4.45,2.63-6.65.25-.61.33-1.31.95-1.71,2.21.1,4.45-.21,6.64.42,2.98.86,5.67,3.83,5.98,7.21.22,2.41,0,4.81.18,7.27.65-.11,1.11-.55,1.63-.86,1.15-.69,2.32-1.35,3.4-2.13.7-.5.96-.26,1.32.35,1.04,1.76,2.14,3.49,3.22,5.23-.98.98-2.29,1.47-3.39,2.27-2.58,1.6-5.14,3.23-7.74,4.79-2.21,1.33-4.62.54-5.51-1.71-.18-.45-.18-.9-.18-1.35,0-4.11,0-8.23,0-12.34,0-.99-.31-1.71-1.49-1.88,0,.4,0,.75,0,1.09,0,8.44,0,16.88,0,25.31,0,.28-.02.57-.03.85-.3.6-.88.53-1.39.54-2.37,0-4.74.04-7.11-.01-.33-.02-.66-.01-.96-.19-.12-.09-.15-.2-.1-.33Z" style="fill:#1a234a; stroke-width:0px;"/><path d="M49.1,105.71c-.02-1.52-.04-3.05-.06-4.57,0-.38.06-.78-.24-1.11-.24-.26-.5-.58-.88-.47-.44.12-.23.54-.24.82-.02,2.48-.04,4.97,0,7.45.01.75-.14,1.05-.99,1.05-5.57-.04-11.15-.03-16.72,0-.74,0-.98-.2-.97-.95.04-2.56.02-5.11,0-7.67,0-.24.18-.63-.24-.7-.29-.05-.53.18-.71.4-.31.38-.36.83-.36,1.3,0,1.49-.02,2.98-.03,4.47-.16.16-.35.25-.57.26-1.94.09-3.88.09-5.82,0-.21,0-.41-.1-.57-.26.04-2.5-.35-5.01.37-7.48.27-.93.77-1.72,1.27-2.53.32-1.17,1.35-1.66,2.24-2.26.76-.51,1.63-.83,2.51-1.09.52-.19,1.06-.18,1.61-.19,1.93,0,3.85-.11,5.78.06.73.19,1.31.69,2.02.93,1.9.64,3.55.02,5.17-.89.79-.16,1.58-.09,2.37-.09.42,0,.84-.02,1.27,0,1.75.08,3.51-.2,5.22.42,1.46.53,2.67,1.38,3.72,2.51.19.21.37.43.32.75,1.45,2.13,1.6,4.53,1.51,6.99-.04.95-.04,1.91-.06,2.86-.16.14-.36.25-.57.26-1.94.09-3.88.09-5.82,0-.21-.01-.41-.1-.56-.27Z" style="fill:#ef4242; stroke-width:0px;"/><path d="M82.27,92.45c1.34.09,2.7-.13,4.03.15,2.01.43,3.65,1.5,4.95,3.08.03.1.19.1.18.23,1.34,1.99,1.64,4.22,1.5,6.56-.06,1.09-.03,2.18-.04,3.28-.26.22-.57.27-.89.27-1.73.03-3.46.03-5.19,0-.32,0-.64-.04-.89-.28-.01-1.56-.02-3.12-.03-4.68,0-.39.03-.78-.29-1.09-.26-.25-.52-.54-.91-.41-.41.14-.26.54-.27.83-.01,2.48-.03,4.96,0,7.44.01.75-.15,1.06-.99,1.05-5.49-.04-10.98-.03-16.48,0-.83,0-1.12-.25-1.1-1.09.04-2.48.02-4.96,0-7.44,0-.26.14-.63-.2-.75-.41-.15-.63.22-.86.47-.27.29-.22.66-.23,1.01-.01,1.56-.02,3.12-.03,4.68-.22.2-.5.26-.79.26-1.8.04-3.6.04-5.4,0-.28,0-.56-.06-.79-.26.02-2.32-.25-4.66.24-6.96.22-1.04.75-1.97,1.24-2.91.03-.72.59-1.07,1.05-1.47,1.12-.98,2.42-1.65,3.87-2.03.52-.19,1.07-.18,1.61-.19,2.07,0,4.14-.12,6.2.07.07.02.14.02.2.06,2.26,1.59,4.52,1.42,6.78-.02.73-.17,1.48-.1,2.22-.1.45,0,.9-.03,1.29.27Z" style="fill:#85bbe5; stroke-width:0px;"/><path d="M27.11,92.64c-1.9.53-3.47,1.57-4.74,3.07-4.22,0-8.44-.05-12.66,0-.95.01-1.2-.26-1.17-1.19.07-2.45.03-4.89.01-7.34,0-.24.19-.64-.23-.7-.31-.04-.61.13-.81.43-.23.35-.25.72-.25,1.12,0,1.56-.02,3.12-.03,4.68-2.33.54-4.65.55-6.98,0,.04-2.22-.22-4.45.17-6.66.61-3.45,3.63-6.19,7.12-6.56,2.25-.24,4.5-.28,6.75-.02.92.1,1.66.75,2.61.82,1.63.12,3.07-.31,4.4-1.22,1.73-.21,3.46-.08,5.19-.09.62-.02,1.21.11,1.82.21,1.23.11,2.44.29,3.33,1.29.24.56-.01,1.11-.05,1.66-.21,2.89.82,5.16,3.32,6.71.41.26.89.46,1.02,1-.09.89.15,1.81-.27,2.67-.3.21-.59.1-.89,0-2.06-.02-4.12-.04-6.18-.07-.44-.47-.29-1.07-.32-1.62-.05-1.06.1-2.12-.13-3.17-.06-.26-.12-.65-.44-.64-.39.02-.28.43-.29.68-.02,1.24,0,2.47-.01,3.71,0,.43-.03.85-.27,1.22Z" style="fill:#85bae5; stroke-width:0px;"/><path d="M71.97,92.5c-2.17-.01-4.34-.02-6.5-.03-.4-.35-.34-.83-.35-1.28-.02-1.02.03-2.05-.03-3.07-.02-.4-.03-1-.57-.95-.37.03-.25.58-.26.92-.02,1.09,0,2.19,0,3.28,0,.46-.03.92-.3,1.32-2.05.42-3.57,1.65-4.89,3.19-1.49,0-2.97,0-4.46-.01-1.38-1.63-3.04-2.82-5.16-3.27-1.32-.28-2.67-.04-4-.21-.41-.35-.33-.83-.34-1.28-.02-1.06,0-2.12-.01-3.18,0-.46-.03-.92-.36-1.3-.19-.35-.08-.69.05-1.02.7-1.67.75-3.35.14-5.06-.12-.33-.22-.68-.02-1.02,2.07,0,4.15,0,6.22,0,.49.19.99.38,1.48.58,1.38.55,2.76.54,4.11-.09.42-.19.84-.36,1.28-.5,2.19,0,4.38-.03,6.57-.01,1.37.01,2.62.5,3.83,1.1.35.46.11.96.06,1.42-.31,2.91.79,5.14,3.19,6.76.44.29.93.52,1.07,1.1.05.88.24,1.76-.18,2.6-.18.14-.36.11-.55,0Z" style="fill:#252e5c; stroke-width:0px;"/><path d="M31.55,80.53c-.98-.57-2.01-1.01-3.17-1.06-.39-.4-.36-.9-.37-1.4,0-8.18,0-16.36,0-24.53,0-.46-.01-.93.32-1.31,2.5,0,4.99,0,7.49-.01.42,0,.85.06,1.22-.21,0,7.92.01,15.85.02,23.77-.1.38-.46.41-.75.5-1.87.63-3.25,1.81-4.15,3.58-.14.28-.27.59-.63.67Z" style="fill:#353f6b; stroke-width:0px;"/><path d="M20.23,7.71c-.24-3.8,3.42-7.38,7.35-7.33,3.99.05,7.45,3.43,7.39,7.46-.07,4.09-3.35,7.29-7.52,7.33-3.73.04-7.45-3.36-7.22-7.46Z" style="fill:#f9b49f; stroke-width:0px;"/><path d="M98.88,69.9c0,4.02-3.18,7.23-7.2,7.24-3.99.01-7.25-3.22-7.27-7.2-.02-3.94,3.27-7.25,7.23-7.27,3.96-.02,7.24,3.25,7.24,7.23Z" style="fill:#813b1c; stroke-width:0px;"/><path d="M17.95,77.14c-1.59-.29-3.15-.61-4.48-1.67-1.92-1.51-3.44-4.61-2.36-8.01.8-2.51,3.45-4.64,6.14-4.81.25-.01.5,0,.7-.19,2.29-.3,4.06.73,5.55,2.3,3.84,4.04,1.75,11.01-3.67,12.29-.62.15-1.25.29-1.88.08Z" style="fill:#f9b49f; stroke-width:0px;"/><path d="M62.02,69.87c0,4.01-3.19,7.24-7.15,7.28-3.78.04-7.34-2.95-7.27-7.28.06-4.19,3.05-7.09,7.16-7.17,4.21-.08,7.34,3.46,7.26,7.17Z" style="fill:#f9b49f; stroke-width:0px;"/><path d="M72.49,89.69c-1.26-.78-2.48-1.59-3.29-2.89-1.22-1.95-1.35-4.02-.81-6.19,1.03-2.48,2.74-4.2,5.43-4.74,3.31-.65,5.96.61,7.88,3.64,1.18,2.45,1.05,4.86-.23,7.23.09.38-.14.63-.34.89-1.94,2.18-4.3,3.15-7.22,2.59-.5-.1-1.02-.13-1.4-.53Z" style="fill:#f9b49f; stroke-width:0px;"/><path d="M31.55,80.53c1.06-2.49,2.86-4.13,5.53-4.75,3.44-.48,5.99.88,7.82,3.75,1.08,2.41.95,4.79-.19,7.15.03.42-.25.69-.48.98-1.93,2.17-4.3,3.11-7.2,2.58-.43-.11-.88-.15-1.22-.49-1.29-.8-2.57-1.59-3.42-2.93-1.25-1.98-1.32-4.09-.83-6.29Z" style="fill:#bb6846; stroke-width:0px;"/><path d="M17.95,77.14c1.76-.27,3.47-.65,4.81-1.95,2.25-2.17,3.02-4.75,1.99-7.72-.99-2.86-3.07-4.48-6.1-4.83-.24-.03-.48-.11-.71-.17,0-3.49.01-6.98.02-10.47.38.26.81.21,1.23.2,2.77-.05,5.54.16,8.31-.2.01.05,0,.1,0,.15-.47.64-.5,1.37-.5,2.12,0,7.73,0,15.45,0,23.18,0,.62.14,1.29-.38,1.82-1.83.03-3.66.05-5.49.08-1.07.3-2.13.51-3.18-.08,0-.71,0-1.42,0-2.13Z" style="fill:#424c83; stroke-width:0px;"/><path d="M29.52,26.03c-.07,1.63-.99,3-1.43,4.52-.11.4-.26.79-.38,1.19-.13,0-.29.09-.36-.1-.67-1.8-1.34-3.6-2-5.4.1-.54,0-1.05-.16-1.56-.37-1.14-.27-2.23.48-3.19.65-.84.6-1.57.02-2.47-.79-1.23-.6-1.48.86-1.49.95,0,1.9-.01,2.85-.02.71.3.61.83.29,1.31-.7,1.07-.58,2.03.16,3.03.57.77.58,1.66.26,2.53-.2.55-.18,1.18-.59,1.65Z" style="fill:#ef4243; stroke-width:0px;"/><path d="M85.93,105.73c2.32,0,4.64,0,6.97.01q.11,3.11-2.99,3.11c-1.02,0-2.05-.02-3.07,0-.67.02-.98-.21-.94-.91.04-.74.02-1.48.03-2.22Z" style="fill:#f8b5a0; stroke-width:0px;"/><path d="M20.73,105.72c2.32,0,4.64,0,6.95,0,.03.99.42,2.24-.13,2.88-.52.62-1.8.16-2.75.19-1.06.03-2.13-.02-3.19.02-.64.02-1-.1-.92-.87.07-.74.03-1.49.04-2.23Z" style="fill:#bc6847; stroke-width:0px;"/><path d="M49.1,105.71c2.32,0,4.63,0,6.95,0,.03.99.41,2.23-.13,2.88-.52.63-1.8.17-2.74.2-1.06.04-2.12-.02-3.18.02-.67.03-.98-.16-.92-.88.06-.74.02-1.48.03-2.22Z" style="fill:#bc6947; stroke-width:0px;"/><path d="M57.57,105.74c2.32,0,4.65,0,6.97,0,0,.7-.02,1.41.04,2.11.06.76-.31,1-.99,1-1.69,0-3.38,0-5.07,0-.68,0-1.05-.24-.99-1,.06-.7.03-1.41.04-2.11Z" style="fill:#f9b5a0; stroke-width:0px;"/><path d="M12.87,52.43c.96,0,1.92.02,2.87,0,.61-.02.73.24.61.78-.34,1.61-1.67,2.79-3.27,2.85-1.94.07-3.28-.85-3.8-2.57-.24-.8-.04-1.11.82-1.07.92.05,1.84.01,2.77.01Z" style="fill:#f9b59f; stroke-width:0px;"/><path d="M.26,92.7c2.33,0,4.65,0,6.98,0q.11,2.98-2.8,2.98c-1.1,0-2.19-.03-3.29.01-.67.03-.98-.15-.92-.88.06-.7.03-1.41.03-2.12Z" style="fill:#f9b49f; stroke-width:0px;"/><path d="M53.03,28.21c1.09-.72,2.24-.58,3.41-.23,1.23.29,1.98,1.26,1.96,2.55.05,1.5-.2,2.86-1.7,3.64-1.22-1.99-2.45-3.97-3.67-5.96Z" style="fill:#f9b49f; stroke-width:0px;"/><path d="M29.52,26.03c.08-.38.12-.77.24-1.14.43-1.3.33-2.5-.53-3.6-.56-.71-.5-1.37-.02-2.11.32-.48.9-1.03.18-1.67,1.21,0,2.43-.01,3.64-.02-.99,2.59-1.97,5.19-2.99,7.77-.11.27-.01.75-.53.76Z" style="fill:#fcfbfc; stroke-width:0px;"/><path d="M17.95,79.27c1.06.03,2.12.05,3.18.08-1.8,1.63-4.74,1.68-6.83.1,1.2-.34,2.43-.04,3.65-.18Z" style="fill:#f5b4a0; stroke-width:0px;"/><path d="M95.07,79.51c-2,1.69-4.75,1.7-6.82,0,2.27,0,4.55,0,6.82,0Z" style="fill:#813d1e; stroke-width:0px;"/><path d="M57.98,79.52c-2.19,1.69-4.82,1.69-6.87,0,2.29,0,4.58,0,6.87,0Z" style="fill:#f6b39e; stroke-width:0px;"/><path d="M91.43,95.91c-.06-.08-.12-.16-.18-.23,3.18,0,6.36,0,9.54-.01-.28.43-.71.21-1.06.22-2.77.03-5.53.02-8.3.03Z" style="fill:#7baa8f; stroke-width:0px;"/><path d="M80.96,87.41c.16-.22.33-.45.49-.67.61-.31.84-.17.82.56-.04,1.72,0,3.43,0,5.15-.43,0-.86,0-1.29,0-.58-1.68-.44-3.36-.01-5.04Z" style="fill:#fefeff; stroke-width:0px;"/><path d="M58.4,30.52c-.31-1.11-.97-1.95-1.96-2.55,1.62-1.63,3.55-2.9,5.32-4.34,1.92-1.56,3.88-3.08,5.84-4.6.92-.71,1.94-.65,2.56.1.64.76.53,1.79-.39,2.52-3.68,2.93-7.39,5.83-11.09,8.73-.08.06-.19.09-.28.13Z" style="fill:#f68c4b; stroke-width:0px;"/><path d="M26.61,79.27c0-8.71.02-17.41,0-26.12,0-.67.07-1.11.87-.99.28.02.57.05.86.07.01,7.87.02,15.75.03,23.62,0,1.21,0,2.41,0,3.62-.59-.07-1.18-.13-1.77-.2Z" style="fill:#fff; stroke-width:0px;"/><path d="M32.51,30.06c-.56,0-1.13,0-1.69,0-.53,0-.76-.27-.75-.79.02-.49.28-.69.74-.69,1.13,0,2.26,0,3.38,0,.61,0,.77.34.77.89,0,.56-.34.61-.76.61-.56-.01-1.13,0-1.69,0Z" style="fill:#252d5b; stroke-width:0px;"/><path d="M37.1,90.03c2.79.39,5.12-.49,6.99-2.59.25.19.34.47.32.74-.09,1.4.38,2.85-.31,4.21-.84.04-1.69.07-2.53.11-1.48.44-2.97.48-4.46.07-.48-.85-.51-1.7,0-2.54Z" style="fill:#262e5c; stroke-width:0px;"/><path d="M27.11,92.64c0-1.81-.02-3.62-.01-5.43,0-.28-.19-.77.25-.79.43-.02.86.14,1.01.73.27,1.05.18,2.11.2,3.16.01.71,0,1.42,0,2.13-.49.06-.98.13-1.47.19Z" style="fill:#fcfcfd; stroke-width:0px;"/><path d="M44.1,92.4c0-1.65,0-3.3,0-4.95.2-.26.41-.51.61-.77.52-.3.75-.19.74.45-.02,1.75,0,3.51,0,5.26-.44,0-.89,0-1.33,0Z" style="fill:#fefdfd; stroke-width:0px;"/><path d="M37.09,92.43c1.49.03,2.99.05,4.48.08-2.25,1.66-4.55,1.66-6.8,0,.28-.03.56-.05.85-.08.49-.32.98-.31,1.48,0Z" style="fill:#bc6746; stroke-width:0px;"/><path d="M80.96,87.41c0,1.68,0,3.36.01,5.04-.78.02-1.55.04-2.33.05-1.56.47-3.12.47-4.69.07-.47-.86-.51-1.71,0-2.57,2.82.44,5.12-.49,7-2.6Z" style="fill:#5ec1a4; stroke-width:0px;"/><path d="M63.95,92.69c0-1.81,0-3.62.02-5.43,0-.25-.18-.61.21-.73.34-.1.62.1.86.31.39.34.42.79.42,1.26,0,1.45,0,2.91.01,4.36-.51.06-1.04-.05-1.52.22Z" style="fill:#f9f8f8; stroke-width:0px;"/><path d="M73.94,92.45c1.57.02,3.14.04,4.7.06-2.02,1.78-5.07,1.52-6.67,0,.16-.02.31-.03.47-.05.5-.33,1-.36,1.5,0Z" style="fill:#f8b4a0; stroke-width:0px;"/><path d="M37.09,92.43c-.49,0-.99,0-1.48,0,.07-.9-.22-1.82.19-2.69.47-.08.87.2,1.3.29,0,.8,0,1.6-.01,2.4Z" style="fill:#fdfbfb; stroke-width:0px;"/><path d="M73.94,92.45c-.5,0-1,0-1.5,0,.02-.92.03-1.84.05-2.77.49.1.98.21,1.48.32,0,.82-.02,1.63-.02,2.44Z" style="fill:#fbf9f8; stroke-width:0px;"/></g></svg>